<!-- Generated by IcoMoon.io -->
<svg version="1.1" xmlns="http://www.w3.org/2000/svg" width="116" height="32" viewBox="0 0 116 32">
<title>brand_2</title>
<path fill="#f8090f" d="M98.069 0c6.6 0 11.933 5.351 11.933 11.933 0 6.6-5.351 11.933-11.933 11.933-6.6 0-11.933-5.351-11.933-11.933-0.018-6.6 5.333-11.933 11.933-11.933z"></path>
<path fill="#000" d="M102.867 22.921l-9.596-0.018h-68.245l4.602-13.931c0.178-0.535 0.553-1.445 0.482-2.158-0.178-1.641-1.766-2.319-3.211-2.016-0.803 0.161-1.195 0.482-1.695 0.963l-6.35 6.921 1.266-4.174c0.143-0.482 0.303-0.928 0.428-1.409l0.41-1.391c0.268-0.892 0.713-2.016 0.428-3.050-0.446-1.605-2.729-1.641-3.817-1.159-0.963 0.428-1.391 0.856-2.087 1.552-0.143 0.143-0.321 0.303-0.446 0.446-0.41 0.499-0.785 0.91-1.231 1.516-0.606 0.838-1.605 2.283-2.212 3.229-0.25 0.392-0.464 0.731-0.713 1.124l-3.389 5.708c-1.088 1.909-2.729 4.584-4.12 6.314-0.767 0.945-1.873 2.123-3.032 2.497-0.196 0.071-0.232-0.018-0.339 0.125 1.070 0 3.728 0.107 4.584-0.161 1.427-0.446 1.819-1.177 2.497-2.301l2.676-4.477c0.107-0.178 0.214-0.339 0.303-0.499l2.997-5.012-0.553 2.016c-0.089 0.339-0.178 0.642-0.285 0.999l-2.016 7.064c-0.303 1.159-0.018 2.14 1.195 2.497 1.873 0.535 3.318-0.41 4.281-1.891 0.767-1.159 1.855-2.569 2.676-3.782l2.14-3.032c0.196-0.268 0.357-0.499 0.553-0.785l2.176-3.050c0 0.196-0.143 0.499-0.214 0.642-1.017 2.747-2.087 5.779-3.139 8.455-0.161 0.428-0.339 0.874-0.428 1.373-0.196 1.177 0.446 1.712 1.605 1.891 0.91 0.143 2.497 0.053 3.55 0.053h85.654c1.302 0 3.871 0.232 5.066-0.214 0.375-0.143 0.856-0.446 0.892-0.91-0.303 0.018-12.986-0.036-13.342 0.036z"></path>
<path fill="#000" d="M88.758 19.71c0.018-0.196 0.018-0.071 0.036-0.268-0.928 0.036-2.836-0.018-3.978-0.018h-1.035c-0.357 0.018-0.339 0.143 0-0.785l0.874-2.515c0.178-0.553 0.41-1.124 0.589-1.677 0.107-0.321 0.553-1.463 0.571-1.712h-7.064c0.053-0.25 0.178-0.535 0.25-0.785 0.107-0.339 0.767-2.158 0.785-2.354-1.748 0-3.496-0.196-4.959 0.767l-0.482 0.375c-0.071 0.071-0.089 0.125-0.178 0.214s-0.107 0.125-0.178 0.25c-0.107 0.196-0.178 0.321-0.268 0.553-0.357 1.088 0.036 2.23 1.035 2.836 0.143 0.089 0.428 0.214 0.624 0.232-0.053 0.214-0.125 0.357-0.196 0.571s-0.125 0.339-0.196 0.571l-1.266 3.443c-1.445 0-3.443-0.036-4.887 0-0.321 0-0.285 0.036-0.232-0.143l0.535-1.48c0.214-0.606 1.766-4.816 1.784-5.066-0.589 0-7.456-0.036-7.831 0.018-0.268 0.036-0.589 0.053-0.892 0.089-0.731 0.107-1.641 0.357-2.265 0.696-0.606 0.339-0.642 0.375-1.177 0.785l-0.945 1.017c-0.606 0.803-0.928 1.998-0.928 3.014-0.018 1.712 1.017 3.068 2.551 3.353 1.142 0.214 2.265 0 3.229-0.571 0.606-0.357 0.999-0.856 1.070-0.91 0 0.517 0.285 0.856 0.642 1.035 0.339 0.161 0.91 0.285 1.409 0.303 1.124 0.018 2.265 0 3.389 0 1.391 0 2.676 0.107 3.657-0.589 0.178-0.125 0.321-0.232 0.446-0.41 0.482-0.606 0.321-0.535 0.606-1.106 0.678 0 1.552 0.089 2.033-0.143 0.589-0.268 0.696-0.678 0.945-1.284 0.214-0.553 0.392-1.035 0.606-1.57 0.107-0.285 0.214-0.535 0.303-0.803l0.303-0.821h2.693l-0.624 1.855c-0.214 0.624-0.428 1.213-0.642 1.837-0.285 0.838-0.713 2.051 0.357 2.729 0.696 0.428 2.622 0.285 3.478 0.285 0.82 0 1.659 0 2.479 0 1.302 0.053 2.658-0.482 2.943-1.819zM62.68 14.805h2.836l-1.605 4.673c0 0-1.552 0.053-1.962-0.499s-0.214-1.017 0.339-2.836c0.535-1.837 0.392-1.338 0.392-1.338z"></path>
<path fill="#000" d="M28.557 18.23c0 0.856 0.071 1.463 0.535 2.158 0.125 0.178 0.232 0.285 0.375 0.428 0.268 0.268 0.517 0.499 0.892 0.66 1.088 0.482 2.693 0.392 3.746-0.196 0.464-0.268 0.928-0.66 1.266-1.035 0.018 0.856 0.749 1.195 1.552 1.284 1.088 0.107 7.064 0.053 8.419 0.053v-0.089c-0.482-0.107-0.856-0.571-0.856-1.159 0-0.357 0.161-0.606 0.178-0.892h-4.317c-0.161 0-0.018-0.018-0.125 0.036 0.089-0.41 0.999-2.747 1.213-3.407 0.196-0.589 0.41-1.124 0.606-1.695l0.446-1.266c0.053-0.125 0.214-0.357 0-0.357h-7.171c-2.515 0-4.834 0.874-6.136 3.032-0.339 0.571-0.624 1.534-0.624 2.444zM34.355 14.805h2.836l-1.605 4.673c0 0-1.552 0.053-1.962-0.499s-0.214-1.017 0.339-2.836c0.553-1.837 0.392-1.338 0.392-1.338z"></path>
<path fill="#000" d="M44.825 14.841h2.051c-0.018 0.214-0.143 0.464-0.214 0.642-0.089 0.232-0.161 0.428-0.232 0.66-0.232 0.678-1.302 3.425-1.302 4.049 0 1.070 0.963 1.373 2.051 1.373h6.297c1.427 0 2.497-0.375 3.139-1.48 0.036-0.071 0.214-0.482 0.214-0.553 0.018-0.178-0.214-0.107-0.66-0.107-0.803 0-5.922-0.089-6.207 0.036 0.018-0.161 0.499-1.463 0.589-1.73l0.999-2.89c1.142 0 1.695 0.089 2.676-0.392 0.589-0.303 1.338-1.124 1.391-1.695h-3.3l0.392-1.070c0.428-1.070 0.91-2.729 1.338-3.799 0.089-0.232 0.143-0.357-0.25-0.303-1.356 0.161-2.033 0.535-2.979 1.481-0.268 0.268-0.446 0.446-0.696 0.767-0.714 0.91-0.821 1.32-1.748 1.891-0.767 0.464-1.249 0.606-2.087 0.874-0.785 0.25-0.606 0.053-0.838 0.66-0.071 0.178-0.125 0.339-0.214 0.517-0.107 0.178-0.392 0.91-0.41 1.070z"></path>
<path fill="#000" d="M90.31 20.977l0.089 0.107c0.125 0.107 0.285 0.303 0.446 0.303 0.838 0.268 1.837 0.161 2.747 0.161 0.945 0 1.891 0 2.818 0 0.963 0 1.588-0.018 2.372-0.464 0.517-0.303 1.070-0.874 1.231-1.605h-5.208c0-0.214 0.767-2.23 0.91-2.622 0.803-2.283 1.32-4.21 2.747-6.154l0.589-0.731c0.107-0.107 0.071-0.089 0.178-0.232-1.035 0.678-1.427 0.928-2.818 1.409-1.391 0.464-2.265 0.589-3.585 0.606-0.535 1.516-1.070 3.014-1.623 4.549-0.268 0.767-0.535 1.498-0.803 2.265-0.321 0.91-0.589 1.463-0.089 2.408z"></path>
<path fill="#fdfdfd" d="M94.002 7.509c-0.803 0-0.731-0.071-1.373-0.178-0.375 0.482-0.553 1.766-0.161 2.337 0.482 0.696 1.552 0.464 2.39 0.268 1.534-0.339 2.979-0.999 4.21-1.748 1.338-0.803 1.891-1.231 3.032-2.158 0.678-0.553 1.712-1.534 2.265-2.194 0.25-0.303 0.874-1.035 0.999-1.302l-1.159 0.874c-2.426 1.748-7.331 4.103-10.203 4.103z"></path>
<path fill="#000" d="M84.923 29.467l0.713-3.924h0.589l-0.981 4.994h-0.589l-0.749-3.478-0.785 3.478h-0.589l-0.981-4.994h0.589l0.713 3.924 0.838-3.924h0.392z"></path>
<path fill="#000" d="M87.617 30.591c-0.25 0-0.464-0.053-0.642-0.178s-0.321-0.303-0.41-0.535c-0.089-0.232-0.143-0.517-0.143-0.838v-0.589c0-0.321 0.053-0.606 0.143-0.82 0.089-0.232 0.232-0.41 0.41-0.517 0.178-0.125 0.392-0.178 0.642-0.178s0.464 0.053 0.642 0.178c0.178 0.125 0.321 0.303 0.41 0.517 0.089 0.232 0.143 0.499 0.143 0.82v0.589c0 0.321-0.053 0.606-0.143 0.838s-0.232 0.41-0.41 0.535c-0.178 0.107-0.392 0.178-0.642 0.178zM87.617 29.931c0.196 0 0.357-0.071 0.464-0.232s0.161-0.375 0.161-0.642v-0.606c0-0.285-0.053-0.482-0.161-0.642-0.107-0.143-0.268-0.232-0.464-0.232s-0.357 0.071-0.464 0.232c-0.107 0.143-0.161 0.357-0.161 0.642v0.589c0 0.285 0.053 0.499 0.161 0.642 0.107 0.161 0.268 0.25 0.464 0.25z"></path>
<path fill="#000" d="M89.632 26.97h0.571v3.567h-0.571zM91.22 27.826c-0.053-0.071-0.107-0.125-0.196-0.178-0.071-0.036-0.161-0.053-0.268-0.053-0.178 0-0.321 0.053-0.428 0.178s-0.143 0.285-0.143 0.517l-0.053-0.678c0.089-0.214 0.214-0.375 0.339-0.499 0.143-0.125 0.303-0.178 0.464-0.178 0.125 0 0.25 0.018 0.357 0.071s0.196 0.107 0.285 0.214z"></path>
<path fill="#000" d="M92.647 29.61c0 0.089 0.018 0.161 0.053 0.196 0.036 0.053 0.071 0.071 0.125 0.071h0.268v0.66h-0.339c-0.214 0-0.392-0.089-0.499-0.25-0.125-0.161-0.178-0.392-0.178-0.696v-4.067h0.571z"></path>
<path fill="#000" d="M95.376 25.543h0.571v4.994h-0.571zM94.662 30.591c-0.214 0-0.392-0.053-0.553-0.178-0.143-0.107-0.268-0.285-0.339-0.499s-0.125-0.482-0.125-0.785v-0.785c0-0.303 0.036-0.571 0.107-0.785s0.196-0.375 0.339-0.499c0.143-0.107 0.321-0.178 0.535-0.178 0.178 0 0.321 0.053 0.464 0.161s0.25 0.268 0.339 0.464l-0.053 0.731c0-0.143-0.018-0.285-0.071-0.392s-0.107-0.196-0.196-0.25c-0.089-0.053-0.178-0.089-0.303-0.089-0.196 0-0.339 0.071-0.446 0.214s-0.161 0.339-0.161 0.606v0.767c0 0.268 0.053 0.464 0.161 0.606s0.25 0.214 0.446 0.214c0.125 0 0.232-0.036 0.303-0.089 0.089-0.053 0.143-0.143 0.196-0.25s0.071-0.25 0.071-0.392l0.036 0.749c-0.053 0.178-0.161 0.321-0.285 0.446-0.125 0.161-0.285 0.214-0.464 0.214z"></path>
<path fill="#000" d="M99.193 29.146l0.303-0.464 1.516 1.463-0.303 0.464zM99.193 30.591c-0.285 0-0.535-0.071-0.749-0.232s-0.375-0.375-0.499-0.642c-0.125-0.285-0.178-0.606-0.178-0.963v-1.409c0-0.375 0.053-0.696 0.178-0.963 0.125-0.285 0.285-0.499 0.499-0.642 0.214-0.161 0.464-0.232 0.749-0.232s0.535 0.071 0.749 0.232c0.214 0.161 0.392 0.375 0.499 0.642 0.125 0.285 0.178 0.606 0.178 0.963v1.409c0 0.357-0.053 0.696-0.178 0.963-0.125 0.285-0.285 0.499-0.499 0.642-0.214 0.161-0.464 0.232-0.749 0.232zM99.193 29.895c0.161 0 0.321-0.053 0.446-0.143s0.232-0.232 0.303-0.392c0.071-0.178 0.107-0.375 0.107-0.589v-1.463c0-0.232-0.036-0.428-0.107-0.589-0.071-0.178-0.161-0.303-0.303-0.392-0.125-0.089-0.268-0.143-0.446-0.143-0.161 0-0.321 0.053-0.446 0.143s-0.232 0.232-0.303 0.392c-0.071 0.178-0.107 0.375-0.107 0.589v1.463c0 0.232 0.036 0.428 0.107 0.589 0.071 0.178 0.161 0.303 0.303 0.392 0.143 0.107 0.285 0.143 0.446 0.143z"></path>
<path fill="#000" d="M103.295 26.97h0.571v3.567h-0.571zM102.1 29.146c0 0.25 0.053 0.446 0.161 0.571 0.107 0.143 0.25 0.196 0.446 0.196 0.178 0 0.339-0.053 0.428-0.178 0.107-0.125 0.161-0.285 0.161-0.517l0.036 0.749c-0.053 0.178-0.161 0.321-0.285 0.446-0.143 0.125-0.303 0.178-0.499 0.178-0.321 0-0.571-0.125-0.749-0.375s-0.268-0.606-0.268-1.070v-2.158h0.571z"></path>
<path fill="#000" d="M106.363 28.272c0-0.232-0.053-0.41-0.161-0.535s-0.25-0.196-0.428-0.196c-0.107 0-0.232 0.018-0.339 0.071-0.107 0.036-0.214 0.107-0.303 0.178l-0.41-0.357c0.107-0.161 0.25-0.285 0.428-0.375s0.375-0.143 0.606-0.143c0.232 0 0.446 0.053 0.624 0.161s0.303 0.25 0.392 0.446c0.089 0.196 0.143 0.428 0.143 0.713v2.283h-0.535v-2.247zM105.65 30.591c-0.357 0-0.624-0.089-0.803-0.268s-0.268-0.464-0.268-0.82c0-0.357 0.089-0.624 0.25-0.785 0.161-0.178 0.41-0.268 0.731-0.268h0.82l0.036 0.571h-0.856c-0.143 0-0.268 0.036-0.339 0.125s-0.107 0.196-0.107 0.375c0 0.178 0.053 0.321 0.143 0.41s0.25 0.125 0.446 0.125c0.214 0 0.375-0.036 0.482-0.089s0.161-0.143 0.161-0.268l0.053 0.499c-0.053 0.089-0.107 0.178-0.178 0.232s-0.161 0.107-0.25 0.143c-0.089 0-0.196 0.018-0.321 0.018z"></path>
<path fill="#000" d="M108.343 29.61c0 0.089 0.018 0.161 0.053 0.196 0.036 0.053 0.071 0.071 0.125 0.071h0.268v0.66h-0.339c-0.214 0-0.392-0.089-0.499-0.25-0.125-0.161-0.178-0.392-0.178-0.696v-4.067h0.571z"></path>
<path fill="#000" d="M109.431 25.543h0.571v0.696h-0.571zM109.431 26.97h0.571v3.567h-0.571z"></path>
<path fill="#000" d="M111.625 30.555c-0.232 0-0.41-0.071-0.517-0.232s-0.161-0.392-0.161-0.713v-3.674h0.571v3.674c0 0.089 0.018 0.161 0.036 0.196 0.036 0.053 0.071 0.071 0.125 0.071h0.268v0.66h-0.321zM110.644 26.97h1.302v0.624h-1.302z"></path>
<path fill="#000" d="M114.997 26.97l-1.231 4.388c-0.053 0.161-0.107 0.285-0.178 0.392-0.071 0.089-0.161 0.161-0.268 0.196s-0.232 0.053-0.392 0.053h-0.107v-0.678h0.107c0.107 0 0.196-0.018 0.25-0.071 0.071-0.053 0.125-0.143 0.161-0.268l1.070-4.031h0.589zM112.428 26.97h0.589l0.892 3.086-0.321 0.749z"></path>
</svg>
