<!-- Generated by IcoMoon.io -->
<svg version="1.1" xmlns="http://www.w3.org/2000/svg" width="99" height="32" viewBox="0 0 99 32">
<title>brand_3</title>
<path fill="#e30016" d="M90.094 15.309v8.948h-3.467v-21.282h5.087c1.89 0 3.266 0.487 4.126 1.462 0.86 0.98 1.29 2.542 1.29 4.688 0 1.316-0.17 2.386-0.515 3.215-0.34 0.829-0.903 1.507-1.678 2.025l2.549 9.893h-3.59l-2.15-8.948zM90.094 6.050v6.185h1.37c0.791 0 1.343-0.226 1.662-0.683 0.313-0.457 0.473-1.306 0.473-2.542 0-1.13-0.165-1.899-0.499-2.311-0.313-0.432-0.897-0.648-1.758-0.648zM57.356 3.029h3.313l2.159 13.693 2.208-13.747h2.958l2.534 13.747 1.861-13.747h3.287l-3.499 21.282h-2.905l-2.643-14.371-2.633 14.371h-2.894zM46.994 7.889c0-1.668 0.483-2.979 1.455-3.934 0.972-0.96 2.299-1.437 3.993-1.437 1.593 0 2.867 0.492 3.807 1.472 0.945 0.98 1.418 2.311 1.418 3.989v10.908c0 1.844-0.462 3.276-1.391 4.296s-2.251 1.532-3.961 1.532c-1.72 0-3.037-0.502-3.951-1.502s-1.37-2.472-1.37-4.416zM54.104 19.565v-11.882c0-0.744-0.149-1.296-0.451-1.663-0.303-0.362-0.749-0.543-1.338-0.543s-1.035 0.186-1.338 0.553c-0.303 0.367-0.451 0.919-0.451 1.653v11.882c0 0.733 0.149 1.286 0.451 1.663 0.303 0.372 0.749 0.558 1.338 0.558s1.035-0.186 1.338-0.558c0.303-0.377 0.451-0.929 0.451-1.663zM34.745 24.257v-21.282h5.962c1.89 0 3.267 0.486 4.126 1.462 0.861 0.979 1.29 2.542 1.29 4.688 0 2.005-0.417 3.58-1.248 4.738s-1.965 1.738-3.404 1.738h-3.201zM38.271 12.556h2.187c0.812 0 1.368-0.232 1.673-0.698 0.306-0.468 0.462-1.357 0.462-2.673 0-1.216-0.157-2.046-0.472-2.482-0.317-0.438-0.913-0.653-1.784-0.653h-2.064zM75.991 24.257v-21.282h9.13v3.075h-5.663v5.577h4.754v3.075h-4.754v6.361h6.31v3.195z"></path>
<path fill="#1b1918" d="M22.899 24.257v-21.282h3.112l4.402 12.716 3.254-12.716v21.282h-2.978l-4.572-13.363v13.363zM12.284 24.257v-21.282h9.13v3.075h-5.663v5.577h4.754v3.075h-4.754v6.361h6.31v3.195zM0 18.796v-10.907c0-1.668 0.483-2.979 1.455-3.934 0.972-0.96 2.299-1.437 3.993-1.437 1.635 0 2.883 0.462 3.733 1.382 0.85 0.924 1.274 2.281 1.274 4.080v1.954h-3.345v-2.251c0-0.744-0.149-1.296-0.451-1.663-0.303-0.362-0.749-0.543-1.338-0.543s-1.035 0.186-1.338 0.553-0.451 0.919-0.451 1.653v11.882c0 0.733 0.149 1.286 0.451 1.663 0.303 0.372 0.749 0.558 1.338 0.558s1.035-0.186 1.338-0.558c0.303-0.377 0.451-0.929 0.451-1.668v-3.326h-2.097v-2.708h5.443v10.732h-1.667l-0.669-1.472c-0.372 0.658-0.828 1.146-1.375 1.457-0.542 0.317-1.2 0.472-1.965 0.472-1.55 0-2.729-0.507-3.552-1.517-0.818-1.010-1.227-2.477-1.227-4.401z"></path>
<path fill="#1b1918" d="M34.135 30.853v-2.113c0-0.323 0.089-0.577 0.267-0.762s0.422-0.278 0.732-0.278c0.3 0 0.529 0.090 0.684 0.268s0.234 0.442 0.234 0.79v0.379h-0.613v-0.436c0-0.144-0.027-0.251-0.083-0.322s-0.137-0.105-0.245-0.105-0.19 0.036-0.245 0.107c-0.056 0.071-0.083 0.178-0.083 0.32v2.302c0 0.142 0.027 0.249 0.083 0.322 0.056 0.072 0.137 0.108 0.245 0.108s0.19-0.036 0.245-0.108c0.055-0.073 0.083-0.18 0.083-0.323v-0.645h-0.385v-0.525h0.998v2.079h-0.306l-0.123-0.285c-0.068 0.128-0.152 0.222-0.252 0.282s-0.22 0.091-0.36 0.091c-0.284 0-0.5-0.098-0.651-0.294-0.15-0.196-0.225-0.48-0.225-0.853zM42.017 31.911v-4.124h1.657v0.596h-1.021v1.081h0.736v0.596h-0.736v1.232h1.021v0.619zM49.543 31.911v-4.124h0.57l0.807 2.464 0.054 0.188 0.068 0.251-0.052-0.331-0.019-0.225v-2.347h0.596v4.124h-0.597l-0.789-2.322c-0.052-0.156-0.092-0.291-0.12-0.405l0.052 0.362 0.019 0.208v2.156zM57.593 31.911v-4.124h1.657v0.596h-1.021v1.081h0.736v0.596h-0.736v1.232h1.021v0.619zM65.749 28.384v1.198h0.251c0.145 0 0.246-0.044 0.305-0.132s0.087-0.253 0.087-0.493c0-0.219-0.030-0.368-0.091-0.448-0.057-0.084-0.165-0.126-0.322-0.126zM65.749 30.178v1.734h-0.636v-4.124h0.933c0.347 0 0.599 0.094 0.756 0.283s0.237 0.493 0.237 0.908c0 0.255-0.031 0.462-0.094 0.623-0.062 0.161-0.165 0.292-0.308 0.392l0.467 1.917h-0.658l-0.394-1.734zM72.636 31.911l0.679-4.124h0.83l0.676 4.124h-0.656l-0.126-0.893h-0.641l-0.135 0.893zM73.477 30.434h0.485l-0.216-1.722h-0.040zM80.042 28.384v-0.596h1.957v0.596h-0.662v3.528h-0.636v-3.528zM88.894 31.002v-2.302c0-0.144-0.027-0.251-0.083-0.322s-0.137-0.105-0.245-0.105-0.19 0.036-0.245 0.107c-0.055 0.071-0.083 0.178-0.083 0.32v2.302c0 0.142 0.027 0.249 0.083 0.322 0.056 0.072 0.137 0.108 0.245 0.108s0.19-0.036 0.245-0.108c0.055-0.073 0.083-0.18 0.083-0.322zM87.59 28.74c0-0.323 0.089-0.577 0.267-0.762s0.422-0.278 0.732-0.278c0.292 0 0.526 0.095 0.698 0.285 0.173 0.19 0.26 0.448 0.26 0.773v2.113c0 0.357-0.085 0.635-0.255 0.832s-0.413 0.297-0.726 0.297c-0.315 0-0.557-0.097-0.724-0.291s-0.251-0.479-0.251-0.856zM96.131 28.384v1.198h0.251c0.145 0 0.246-0.044 0.305-0.132s0.087-0.253 0.087-0.493c0-0.219-0.030-0.368-0.091-0.448-0.057-0.084-0.165-0.126-0.322-0.126zM96.131 30.178v1.734h-0.636v-4.124h0.933c0.347 0 0.599 0.094 0.756 0.283s0.237 0.493 0.237 0.908c0 0.255-0.031 0.462-0.094 0.623-0.062 0.161-0.165 0.292-0.308 0.392l0.467 1.917h-0.658l-0.394-1.734z"></path>
<path fill="#1b1918" d="M97.079 0.789v0.487h0.218c0.122 0 0.212-0.019 0.27-0.057s0.088-0.098 0.088-0.18c0-0.085-0.030-0.148-0.090-0.188s-0.154-0.062-0.283-0.062zM96.747 0.58h0.595c0.214 0 0.376 0.036 0.488 0.106s0.167 0.176 0.167 0.313c0 0.111-0.030 0.204-0.090 0.279s-0.144 0.124-0.255 0.148l0.345 0.699h-0.371l-0.305-0.645h-0.241v0.645h-0.332zM97.312 0.201c-0.162 0-0.311 0.028-0.449 0.085s-0.262 0.141-0.374 0.254c-0.112 0.113-0.199 0.242-0.261 0.389s-0.094 0.297-0.094 0.449c0 0.081 0.007 0.157 0.020 0.227s0.036 0.144 0.067 0.218c0.057 0.139 0.141 0.265 0.251 0.376s0.238 0.198 0.382 0.261c0.144 0.063 0.29 0.094 0.437 0.094 0.163 0 0.316-0.029 0.46-0.088s0.274-0.144 0.39-0.257c0.108-0.104 0.193-0.227 0.253-0.369s0.092-0.29 0.092-0.445c0-0.165-0.028-0.319-0.085-0.46s-0.141-0.269-0.254-0.383-0.24-0.2-0.383-0.261c-0.143-0.061-0.295-0.092-0.455-0.092zM97.308 0c0.193 0 0.372 0.034 0.537 0.104s0.316 0.172 0.451 0.308c0.125 0.129 0.222 0.275 0.291 0.44s0.102 0.341 0.102 0.526c0 0.192-0.034 0.37-0.104 0.537s-0.169 0.314-0.301 0.441-0.283 0.227-0.452 0.297c-0.17 0.071-0.345 0.106-0.525 0.106-0.181 0-0.356-0.036-0.526-0.106s-0.32-0.172-0.451-0.305c-0.131-0.133-0.23-0.283-0.299-0.45s-0.102-0.34-0.102-0.52c0-0.181 0.036-0.357 0.106-0.528s0.174-0.323 0.309-0.459c0.129-0.128 0.274-0.225 0.437-0.291s0.339-0.1 0.525-0.1z"></path>
</svg>
