<!-- Generated by IcoMoon.io -->
<svg version="1.1" xmlns="http://www.w3.org/2000/svg" width="152" height="32" viewBox="0 0 152 32">
<title>brand_4</title>
<path fill="#231f20" d="M16.193 25.137h3.084v-0.849h-7.248v0.849h3.085v6.709h1.080v-6.709z"></path>
<path fill="#231f20" d="M24.752 31.846h1.079v-3.085c0-1.772-1.079-2.544-2.545-2.544-1.002 0-1.851 0.386-2.313 1.157v-3.085h-1.079v7.557h1.079v-2.545c0-1.695 1.080-2.389 2.159-2.389 1.002 0 1.62 0.54 1.62 1.928v3.006z"></path>
<path fill="#231f20" d="M30.227 26.911c-1.080 0-1.851 0.54-2.005 1.774h3.855c0-1.234-0.925-1.774-1.85-1.774zM28.145 29.378c0.077 1.080 0.771 1.928 2.004 1.928 0.926 0 1.542-0.309 1.774-1.080h1.156c-0.231 1.311-1.542 1.774-2.853 1.774-2.005 0-3.162-1.080-3.162-2.776 0-1.927 1.234-3.007 3.162-3.007s2.93 1.003 2.93 2.852v0.309h-5.012z"></path>
<path fill="#231f20" d="M73.87 27.22c0.155 0 0.386 0 0.772 0.077v-0.926c-0.155-0.077-0.309-0.077-0.617-0.077-1.002 0-1.697 0.54-2.082 1.234l-0.077-1.080h-1.002c0 0.386 0.077 0.771 0.077 1.234v4.163h1.002v-2.622c0-1.31 0.616-2.004 1.927-2.004v0z"></path>
<path fill="#231f20" d="M105.87 27.22c0.232 0 0.463 0 0.848 0.077v-0.926c-0.155-0.077-0.309-0.077-0.694-0.077-1.002 0-1.619 0.54-2.082 1.234v-1.080h-1.003c0 0.386 0 0.771 0 1.234v4.163h1.080v-2.622c0-1.31 0.616-2.004 1.85-2.004v0z"></path>
<path fill="#231f20" d="M54.747 31.074l-1.696-4.626h-1.234l2.159 5.398h1.465l1.773-4.549 1.927 4.549h1.388l2.159-5.398h-1.156l-1.697 4.626-1.851-4.626h-1.388l-1.851 4.626z"></path>
<path fill="#231f20" d="M40.79 25.060h-2.158v3.008h2.236c1.388 0 1.851-0.54 1.851-1.543 0-0.849-0.462-1.466-1.928-1.466zM40.945 28.915h-2.313v2.931h-1.080v-7.557h3.238c2.314-0.077 3.085 0.926 3.085 2.237 0 1.388-0.925 2.389-2.93 2.389v0 0z"></path>
<path fill="#231f20" d="M47.807 26.911c-1.465 0-2.236 0.926-2.236 2.236 0 1.156 0.771 2.158 2.236 2.158 1.542 0 2.314-1.003 2.314-2.158 0-1.311-0.771-2.236-2.314-2.236zM47.807 32c-2.159 0-3.315-1.003-3.315-2.852 0-1.774 1.156-2.931 3.315-2.931 2.314 0 3.393 1.080 3.393 2.931 0 1.849-1.157 2.852-3.393 2.852v0 0z"></path>
<path fill="#231f20" d="M66.391 26.911c-1.080 0-1.85 0.54-2.005 1.774h3.855c0-1.234-0.925-1.774-1.851-1.774zM64.309 29.378c0.154 1.080 0.771 1.928 2.005 1.928 0.925 0 1.619-0.309 1.851-1.080h1.079c-0.231 1.311-1.542 1.774-2.853 1.774-2.005 0-3.084-1.080-3.084-2.776 0-1.927 1.156-3.007 3.084-3.007s3.008 1.003 3.008 2.852v0.309h-5.089z"></path>
<path fill="#231f20" d="M110.42 26.911c-1.080 0-1.928 0.54-2.004 1.774h3.855c0-1.234-0.926-1.774-1.851-1.774zM108.338 29.378c0.077 1.080 0.77 1.928 2.005 1.928 0.925 0 1.541-0.309 1.773-1.080h1.157c-0.231 1.311-1.542 1.774-2.93 1.774-1.927 0-3.084-1.080-3.084-2.776 0-1.927 1.233-3.007 3.161-3.007s2.93 1.003 2.93 2.852v0.309h-5.012z"></path>
<path fill="#231f20" d="M88.521 24.828c0.231 0 0.617 0.077 1.157 0.155v-0.771c-0.385-0.077-0.849-0.077-1.388-0.077-1.542 0-2.005 0.771-2.005 2.082v0.231h-1.387v0.694h1.387v4.703h1.003v-4.703h2.236v-0.694h-2.236v-0.463c0-0.848 0.385-1.157 1.233-1.157v0z"></path>
<path fill="#231f20" d="M81.041 26.911c-1.465 0-2.236 0.926-2.236 2.236 0 1.156 0.771 2.158 2.236 2.158s2.236-1.003 2.236-2.158c0-1.311-0.694-2.236-2.236-2.236zM81.041 32c-2.236 0-3.393-1.003-3.393-2.852 0-1.774 1.234-2.931 3.393-2.931 2.236 0 3.393 1.080 3.393 2.931 0 1.849-1.234 2.852-3.393 2.852v0 0z"></path>
<path fill="#231f20" d="M127.152 27.528c-0.309-0.848-1.157-1.311-1.927-1.311-0.772 0-1.542 0.386-2.006 1.157l-0.077-0.925h-1.002c0 0.386 0.077 0.771 0.077 1.234v4.163h1.002v-2.622c0-1.618 0.927-2.312 1.774-2.312s1.31 0.617 1.31 2.158v2.777h1.080v-2.622c0-1.927 1.157-2.312 1.696-2.312 1.080 0 1.388 0.771 1.388 2.158v2.777h1.002v-3.161c0-1.774-0.925-2.468-2.236-2.468-1.079 0-1.85 0.771-2.082 1.311v0z"></path>
<path fill="#231f20" d="M135.557 32c2.005 0 3.008-0.54 3.008-1.697 0-0.849-0.54-1.234-1.542-1.388l-1.773-0.384c-0.77-0.154-1.157-0.309-1.157-0.771 0-0.54 0.618-0.849 1.619-0.849 0.772 0 1.466 0.231 1.543 0.926h1.079c0-1.311-1.466-1.62-2.622-1.62-1.387 0-2.621 0.463-2.621 1.697 0 0.847 0.617 1.234 1.465 1.387l1.697 0.309c0.54 0.154 1.156 0.308 1.156 0.771 0 0.617-0.616 0.926-1.773 0.926-0.925 0-1.619-0.309-1.773-1.003h-1.080c0.077 1.234 1.234 1.697 2.776 1.697v0z"></path>
<path fill="#231f20" d="M96.849 25.060h-1.774v5.937h1.927c2.622 0 3.239-1.388 3.239-2.929 0-2.005-0.693-3.008-3.392-3.008zM97.156 31.846h-3.237v-7.557h3.237c2.931 0 4.241 1.311 4.241 3.78 0 2.389-1.541 3.778-4.241 3.778v0 0z"></path>
<path fill="#231f20" d="M119.287 29.455c0 1.312-0.694 1.851-2.005 1.851-1.079 0-1.465-0.463-1.465-1.080 0-1.157 2.158-1.078 2.93-1.078h0.54zM119.364 31.846h1.002c0-0.308 0-0.617 0-1.080v-2.621c0-1.311-1.079-1.928-2.622-1.928-1.156 0-2.544 0.309-2.698 1.62h1.157c0.077-0.54 0.617-0.926 1.541-0.926 0.926 0 1.543 0.386 1.543 1.311v0.231h-0.617c-1.234 0-4.010-0.077-4.010 1.772 0 1.080 0.926 1.774 2.314 1.774 1.079 0 1.773-0.077 2.313-0.926l0.077 0.771z"></path>
<path fill="#ea2134" d="M130.314 9.484h6.708l-3.393-5.243zM119.287 17.812v-2.313l2.39-0.231c0.771-0.155 1.080-0.848 1.233-1.003l5.784-9.484c0.462-0.694 0-1.388-0.617-1.465l-3.007-0.309v-2.39h13.185c0.772 0 1.234 0.54 1.543 1.002l7.71 11.798c0.617 0.925 1.079 1.696 1.85 1.773l2.468 0.231v2.39h-14.881v-2.313l1.851-0.231c0.926-0.077 1.696-0.54 0.926-1.619l-0.694-1.079h-10.564l-0.848 1.31c-0.463 0.771 0 1.311 0.771 1.388l1.927 0.231v2.313h-11.026z"></path>
<path fill="#ea2134" d="M106.796 14.496h-4.395v-10.564h4.395c4.241 0 5.937 0.926 5.937 5.321 0 4.318-1.696 5.243-5.937 5.243zM109.417 0.617h-16.964v2.39l2.082 0.155c0.848 0.154 1.157 0.694 1.157 1.465s0 8.636 0 9.253c0 0.694-0.309 1.311-1.003 1.388l-2.236 0.308v2.236h16.964c7.865 0 11.257-3.777 11.257-8.867 0-4.473-3.393-8.328-11.257-8.328v0 0z"></path>
<path fill="#ea2134" d="M0 17.812h13.803v-2.313l-2.391-0.231c-0.54-0.077-1.079-0.386-1.079-1.542v-2.776h10.641v2.622c0 0.771-0.154 1.542-1.079 1.619l-2.39 0.231v2.39h13.802v-2.39l-2.467-0.231c-0.463-0.077-1.002-0.463-1.002-1.388v-8.944c0-0.926 0.309-1.542 1.079-1.62l2.39-0.231v-2.39h-13.802v2.313l2.39 0.308c0.848 0.078 1.079 0.771 1.079 1.62v2.621h-10.641v-2.699c0-1.003 0.463-1.465 1.157-1.543l2.313-0.231v-2.39h-13.725v2.39l2.313 0.231c0.848 0.078 1.157 0.771 1.079 1.62v8.713c0 1.002-0.231 1.619-1.156 1.696l-2.314 0.231v2.313z"></path>
<path fill="#ea2134" d="M46.034 3.238c-3.932 0-6.168 1.465-6.168 5.937 0 4.55 2.236 6.015 6.168 6.015 3.856 0 6.092-1.465 6.092-6.015 0-4.472-2.236-5.937-6.092-5.937zM31.923 9.176c0-5.397 4.395-9.176 14.111-9.176 9.639 0 14.034 3.778 14.034 9.176 0 5.475-4.395 9.253-14.034 9.253-9.715 0-14.111-3.778-14.111-9.253v0 0z"></path>
<path fill="#ea2134" d="M60.839 17.812h10.949v-2.313l-2.313-0.231c-0.694-0.077-1.080-0.617-1.080-1.465v-8.713l9.1 12.030c0.308 0.461 0.925 0.693 1.465 0.693h8.636v-13.031c0-0.617 0.154-1.465 1.001-1.543l2.391-0.231v-2.39h-10.95v2.313l2.391 0.308c0.848 0.078 1.002 0.848 1.002 1.62v8.481l-9.021-11.951c-0.385-0.463-0.848-0.771-1.465-0.771h-12.106v2.39l2.237 0.231c0.848 0.155 1.156 0.54 1.156 1.62v8.713c0 1.079-0.309 1.542-1.156 1.696l-2.237 0.231v2.313z"></path>
</svg>
