<!-- Generated by IcoMoon.io -->
<svg version="1.1" xmlns="http://www.w3.org/2000/svg" width="133" height="32" viewBox="0 0 133 32">
<title>brand_2</title>
<path fill="#2b2523" d="M32.091 22.185c-0.173-0.707-0.423-1.33-0.747-1.904l0.019 0.037c-0.3-0.541-0.655-1.007-1.067-1.415l-0-0c-0.37-0.368-0.786-0.691-1.238-0.959l-0.029-0.016c-0.756-0.461-1.661-0.752-2.63-0.799l-0.013-0h-7.928c-0.027 0.002-0.058 0.003-0.089 0.003-0.421 0-0.796-0.199-1.036-0.508l-0.002-0.003c-0.281-0.405-0.448-0.907-0.448-1.448 0-0.053 0.002-0.106 0.005-0.158l-0 0.007c-0.002-0.042-0.004-0.091-0.004-0.14 0-0.554 0.169-1.069 0.457-1.496l-0.006 0.009c0.24-0.321 0.619-0.526 1.046-0.526 0.027 0 0.054 0.001 0.081 0.002l-0.004-0h12.173v-5.197h-12.173c-1.542 0.033-2.927 0.674-3.933 1.691l-0.001 0.001c-0.621 0.637-1.122 1.394-1.466 2.232l-0.017 0.047c-0.371 0.937-0.587 2.023-0.587 3.159 0 0.081 0.001 0.163 0.003 0.243l-0-0.012c-0.002 0.067-0.003 0.146-0.003 0.225 0 1.14 0.215 2.229 0.607 3.229l-0.021-0.060c0.357 0.888 0.859 1.646 1.484 2.284l-0.001-0.001c0.545 0.542 1.198 0.975 1.924 1.266l0.039 0.014c0.582 0.238 1.257 0.383 1.964 0.4l0.007 0h7.888c0.005-0 0.010-0 0.016-0 0.227 0 0.441 0.052 0.632 0.144l-0.009-0.004c0.194 0.098 0.355 0.233 0.481 0.396l0.002 0.003c0.146 0.193 0.259 0.42 0.328 0.665l0.003 0.014c0.079 0.264 0.124 0.568 0.124 0.883 0 0.014-0 0.029-0 0.043l0-0.002c0.003 0.043 0.004 0.094 0.004 0.144 0 0.543-0.166 1.047-0.45 1.464l0.006-0.009c-0.245 0.317-0.625 0.519-1.052 0.519-0.031 0-0.061-0.001-0.091-0.003l0.004 0h-11.066l-8.699-11.686 15.408-14.636h-6.616l-15.372 14.712 12.537 16.835h13.817c0.465-0.003 0.913-0.067 1.339-0.184l-0.036 0.009c0.513-0.136 0.963-0.323 1.378-0.562l-0.027 0.014c0.484-0.277 0.903-0.591 1.278-0.95l-0.002 0.002c0.42-0.406 0.777-0.872 1.060-1.385l0.015-0.030c0.298-0.539 0.548-1.163 0.716-1.82l0.012-0.055c0.172-0.709 0.27-1.522 0.27-2.359s-0.098-1.65-0.284-2.43l0.014 0.071z"></path>
<path fill="#2b2523" d="M44.184 13.49h-2.399v-13.301h2.399zM55.602 13.49h-3.394l-5.381-5.437h-1.683v-2.431h1.683l5.381-5.433h3.394l-6.796 6.648z"></path>
<path fill="#2b2523" d="M86.502 12.458c0 0.001 0 0.003 0 0.004 0 0.173-0.037 0.338-0.103 0.487l0.003-0.008c-0.061 0.155-0.148 0.288-0.256 0.4l0-0c-0.217 0.215-0.515 0.348-0.845 0.348-0.002 0-0.005 0-0.007-0h0c-0.161-0.002-0.315-0.031-0.457-0.083l0.010 0.003c-0.158-0.061-0.292-0.154-0.399-0.271l-0.001-0.001-8.739-9.195v9.347h-2.399v-12.289c0-0.002 0-0.004 0-0.005 0-0.249 0.078-0.48 0.21-0.67l-0.002 0.004c0.137-0.189 0.317-0.337 0.527-0.432l0.008-0.003c0.137-0.059 0.296-0.093 0.463-0.093 0.087 0 0.171 0.009 0.252 0.027l-0.008-0.001c0.246 0.048 0.458 0.169 0.619 0.339l0.001 0.001 8.739 9.195v-9.375h2.399z"></path>
<path fill="#2b2523" d="M102.461 12.458c0 0.004 0 0.009 0 0.014 0 0.17-0.035 0.332-0.099 0.478l0.003-0.008c-0.061 0.155-0.148 0.288-0.256 0.4l0-0c-0.217 0.215-0.515 0.348-0.845 0.348-0.002 0-0.005 0-0.007-0h0c-0.161-0.002-0.315-0.031-0.457-0.083l0.010 0.003c-0.158-0.061-0.292-0.154-0.399-0.271l-0.001-0.001-8.739-9.195v9.347h-2.399v-12.289c0-0.002 0-0.004 0-0.005 0-0.249 0.078-0.48 0.21-0.67l-0.002 0.004c0.137-0.189 0.317-0.337 0.527-0.432l0.008-0.003c0.136-0.058 0.294-0.091 0.459-0.091 0.084 0 0.165 0.009 0.244 0.025l-0.008-0.001c0.245 0.047 0.456 0.168 0.615 0.339l0.001 0.001 8.743 9.195v-9.375h2.399z"></path>
<path fill="#2b2523" d="M117.165 13.49h-8.631c-0.391-0.007-0.764-0.071-1.115-0.184l0.028 0.008c-0.424-0.129-0.791-0.327-1.11-0.585l0.006 0.005c-0.345-0.286-0.627-0.634-0.831-1.029l-0.009-0.018c-0.213-0.432-0.338-0.941-0.338-1.479 0-0.042 0.001-0.084 0.002-0.126l-0 0.006v-8.683c0-0.002 0-0.004 0-0.006 0-0.17 0.035-0.331 0.099-0.478l-0.003 0.008c0.060-0.155 0.145-0.288 0.252-0.4l-0 0c0.105-0.109 0.231-0.197 0.372-0.257l0.007-0.003c0.139-0.061 0.3-0.096 0.47-0.096 0.003 0 0.007 0 0.010 0h10.774v2.399h-9.595v7.532c-0.001 0.020-0.002 0.042-0.002 0.065 0 0.253 0.095 0.484 0.251 0.659l-0.001-0.001c0.173 0.158 0.404 0.254 0.657 0.254 0.025 0 0.049-0.001 0.074-0.003l-0.003 0h8.611zM116.090 8.053h-7.556v-2.431h7.556z"></path>
<path fill="#2b2523" d="M132.661 4.659c0 0.021 0 0.046 0 0.070 0 0.501-0.075 0.984-0.214 1.44l0.009-0.035c-0.128 0.435-0.308 0.815-0.537 1.159l0.010-0.015c-0.228 0.327-0.492 0.607-0.792 0.845l-0.008 0.006c-0.274 0.216-0.584 0.409-0.914 0.567l-0.030 0.013c-0.286 0.137-0.619 0.25-0.966 0.323l-0.029 0.005c-0.281 0.063-0.605 0.101-0.937 0.104l-0.002 0 4.993 4.35h-3.714l-4.985-4.35h-1.723v-2.399h5.413c0.302-0.023 0.582-0.090 0.843-0.195l-0.019 0.007c0.248-0.1 0.461-0.235 0.645-0.401l-0.002 0.002c0.171-0.174 0.307-0.383 0.396-0.615l0.004-0.012c0.094-0.236 0.148-0.508 0.148-0.794 0-0.016-0-0.032-0-0.048l0 0.002v-1.551c0.001-0.012 0.001-0.026 0.001-0.039 0-0.096-0.018-0.189-0.051-0.274l0.002 0.005c-0.030-0.065-0.075-0.119-0.131-0.159l-0.001-0.001c-0.047-0.030-0.102-0.051-0.162-0.060l-0.002-0h-8.040v10.882h-2.399v-12.085c-0-0.004-0-0.010-0-0.015 0-0.166 0.034-0.325 0.095-0.469l-0.003 0.008c0.060-0.155 0.145-0.288 0.252-0.4l-0 0c0.11-0.111 0.244-0.2 0.392-0.257l0.008-0.003c0.139-0.061 0.3-0.096 0.47-0.096 0.003 0 0.007 0 0.010 0h9.083c0.020-0.001 0.043-0.001 0.066-0.001 0.47 0 0.914 0.114 1.305 0.316l-0.016-0.007c0.349 0.18 0.642 0.422 0.875 0.714l0.004 0.005c0.216 0.27 0.387 0.586 0.494 0.931l0.005 0.020c0.091 0.285 0.147 0.613 0.152 0.953l0 0.003z"></path>
<path fill="#2b2523" d="M54.978 27.882c0 0.017 0 0.038 0 0.058 0 0.438-0.066 0.861-0.188 1.26l0.008-0.030c-0.12 0.382-0.283 0.715-0.488 1.017l0.009-0.013c-0.194 0.289-0.424 0.534-0.688 0.738l-0.007 0.005c-0.239 0.188-0.509 0.355-0.798 0.489l-0.025 0.011c-0.249 0.119-0.539 0.218-0.841 0.283l-0.026 0.005c-0.249 0.059-0.535 0.093-0.83 0.096h-9.305v-2.399h9.303c0.028 0.002 0.060 0.003 0.092 0.003 0.384 0 0.733-0.154 0.987-0.403l-0 0c0.249-0.269 0.401-0.63 0.401-1.027 0-0.024-0.001-0.048-0.002-0.072l0 0.003c0-0.003 0-0.007 0-0.011 0-0.215-0.038-0.422-0.108-0.613l0.004 0.012c-0.067-0.186-0.166-0.346-0.292-0.48l0.001 0.001c-0.125-0.137-0.28-0.245-0.456-0.313l-0.008-0.003c-0.172-0.071-0.372-0.112-0.582-0.112-0.009 0-0.018 0-0.027 0l0.001-0h-5.537c-0.454-0.008-0.887-0.083-1.294-0.217l0.031 0.009c-0.484-0.153-0.903-0.384-1.266-0.681l0.007 0.005c-0.398-0.325-0.722-0.725-0.954-1.179l-0.010-0.021c-0.253-0.511-0.401-1.113-0.401-1.75 0-0.031 0-0.062 0.001-0.093l-0 0.005c-0.001-0.028-0.001-0.061-0.001-0.094 0-0.632 0.148-1.23 0.411-1.76l-0.010 0.023c0.243-0.474 0.567-0.873 0.957-1.194l0.006-0.005c0.356-0.293 0.775-0.525 1.233-0.672l0.027-0.007c0.376-0.125 0.809-0.2 1.259-0.208l0.004-0h8.208v2.399h-8.208c-0.024-0.002-0.052-0.002-0.080-0.002-0.389 0-0.741 0.162-0.991 0.422l-0 0c-0.249 0.274-0.401 0.639-0.401 1.039 0 0.023 0 0.045 0.001 0.067l-0-0.003c-0.001 0.022-0.002 0.048-0.002 0.074 0 0.396 0.153 0.757 0.402 1.027l-0.001-0.001c0.254 0.249 0.603 0.402 0.987 0.402 0.030 0 0.059-0.001 0.089-0.003l-0.004 0h5.565c0.296 0.007 0.579 0.046 0.85 0.114l-0.027-0.006c0.33 0.075 0.619 0.178 0.892 0.31l-0.024-0.011c0.314 0.152 0.584 0.323 0.833 0.519l-0.009-0.007c0.542 0.449 0.949 1.044 1.16 1.725l0.007 0.026c0.112 0.367 0.176 0.79 0.176 1.227 0 0.018-0 0.037-0 0.055l0-0.003z"></path>
<path fill="#2b2523" d="M84.227 18.495h2.411v13.301h-2.411v-5.433h-8.471v5.433h-2.411v-13.301h2.411v5.437h8.471z"></path>
<path fill="#2b2523" d="M102.745 30.785c0 0.005 0 0.011 0 0.017 0 0.168-0.037 0.327-0.103 0.47l0.003-0.007c-0.061 0.155-0.148 0.288-0.256 0.4l0-0c-0.113 0.106-0.245 0.193-0.391 0.253l-0.009 0.003c-0.119 0.041-0.256 0.065-0.398 0.065-0.016 0-0.032-0-0.048-0.001l0.002 0c-0.163-0.001-0.318-0.032-0.461-0.087l0.009 0.003c-0.157-0.061-0.291-0.152-0.399-0.267l-0.001-0.001-8.795-9.195v9.363h-2.399v-12.273c-0-0.004-0-0.008-0-0.012 0-0.248 0.078-0.479 0.21-0.668l-0.002 0.004c0.121-0.195 0.288-0.351 0.485-0.456l0.007-0.003c0.138-0.058 0.298-0.092 0.466-0.092 0.085 0 0.169 0.009 0.249 0.025l-0.008-0.001c0.246 0.045 0.459 0.165 0.619 0.335l0.001 0.001 8.795 9.195v-9.359h2.399z"></path>
<path fill="#2b2523" d="M117.577 31.796h-8.703c-0.393-0.005-0.769-0.069-1.122-0.183l0.027 0.008c-0.423-0.127-0.789-0.326-1.105-0.584l0.006 0.005c-0.348-0.287-0.631-0.638-0.835-1.037l-0.009-0.018c-0.213-0.43-0.338-0.937-0.338-1.473 0-0.044 0.001-0.088 0.003-0.132l-0 0.006v-8.675c-0-0.005-0-0.011-0-0.017 0-0.164 0.034-0.32 0.095-0.462l-0.003 0.008c0.062-0.155 0.149-0.288 0.256-0.4l-0 0c0.111-0.11 0.244-0.198 0.392-0.257l0.008-0.003c0.141-0.058 0.304-0.092 0.475-0.092 0.003 0 0.006 0 0.009 0h10.846v2.399h-9.667v7.528c-0.001 0.020-0.002 0.043-0.002 0.066 0 0.252 0.097 0.482 0.255 0.654l-0.001-0.001c0.174 0.158 0.406 0.254 0.66 0.254 0.025 0 0.050-0.001 0.075-0.003l-0.003 0h8.683zM116.489 26.363h-7.616v-2.431h7.616z"></path>
<path fill="#2b2523" d="M133.196 30.785c0 0.003 0 0.006 0 0.010 0 0.17-0.035 0.331-0.099 0.478l0.003-0.008c-0.125 0.292-0.354 0.52-0.64 0.641l-0.008 0.003c-0.138 0.058-0.298 0.092-0.465 0.092-0.002 0-0.005 0-0.007-0h0c-0.161-0.001-0.315-0.032-0.457-0.087l0.009 0.003c-0.158-0.060-0.292-0.151-0.399-0.267l-0.001-0.001-8.799-9.219v9.371h-2.399v-12.273c0-0 0-0 0-0.001 0-0.252 0.078-0.486 0.211-0.679l-0.003 0.004c0.124-0.196 0.294-0.353 0.497-0.456l0.007-0.003c0.136-0.059 0.295-0.093 0.462-0.093 0.086 0 0.169 0.009 0.249 0.026l-0.008-0.001c0.248 0.045 0.462 0.165 0.623 0.335l0 0 8.795 9.195v-9.359h2.399z"></path>
<path fill="#2b2523" d="M61.687 2.452c0.157-0.025 0.338-0.039 0.523-0.040h1.2v-2.411h-1.199c-0.18 0-0.352 0-0.524 0.024z"></path>
<path fill="#2b2523" d="M64.234 2.4h1.199c0.18 0.002 0.354 0.015 0.525 0.038l-0.022-0.002v-2.411c-0.168 0-0.336-0.024-0.504-0.024h-1.199z"></path>
<path fill="#2b2523" d="M70.534 3.335c-0.274-0.685-0.663-1.27-1.148-1.759l0 0c-0.485-0.485-1.064-0.876-1.708-1.143l-0.035-0.013c-0.246-0.102-0.54-0.195-0.844-0.261l-0.036-0.007v2.519c0.72 0.297 1.275 0.868 1.545 1.58l0.006 0.019c0.144 0.368 0.228 0.795 0.228 1.241 0 0.018-0 0.036-0 0.053l0-0.003v2.543c0 0.014 0 0.031 0 0.047 0 0.448-0.084 0.877-0.236 1.272l0.008-0.024c-0.289 0.754-0.874 1.34-1.608 1.625l-0.019 0.007c-0.365 0.144-0.788 0.228-1.23 0.228-0.016 0-0.032-0-0.048-0l0.002 0h-3.198c-0.013 0-0.029 0-0.045 0-0.442 0-0.865-0.084-1.253-0.236l0.023 0.008c-0.386-0.151-0.716-0.368-0.992-0.64l0 0c-0.272-0.274-0.488-0.605-0.629-0.972l-0.006-0.019c-0.144-0.37-0.228-0.799-0.228-1.248 0-0.017 0-0.033 0-0.050l-0 0.002v-2.539c-0-0.015-0-0.033-0-0.051 0-0.446 0.084-0.872 0.236-1.264l-0.008 0.024c0.147-0.388 0.363-0.72 0.636-0.996l-0 0c0.256-0.251 0.56-0.455 0.897-0.597l0.019-0.007v-2.519c-0.327 0.072-0.61 0.163-0.881 0.276l0.034-0.012c-1.331 0.542-2.365 1.581-2.89 2.88l-0.012 0.035c-0.254 0.63-0.401 1.36-0.401 2.125 0 0.037 0 0.075 0.001 0.112l-0-0.006v2.543c-0.001 0.034-0.001 0.074-0.001 0.114 0 0.763 0.147 1.492 0.415 2.16l-0.014-0.039c0.278 0.686 0.667 1.272 1.152 1.764l-0.001-0.001c0.486 0.487 1.069 0.879 1.716 1.143l0.035 0.013c0.624 0.253 1.348 0.401 2.107 0.401 0.032 0 0.065-0 0.097-0.001l-0.005 0h3.238c0.027 0 0.060 0.001 0.092 0.001 0.757 0 1.48-0.147 2.141-0.414l-0.038 0.014c0.679-0.278 1.259-0.669 1.743-1.155l0-0c0.483-0.492 0.871-1.078 1.135-1.727l0.013-0.036c0.254-0.633 0.401-1.366 0.401-2.134 0-0.035-0-0.071-0.001-0.106l0 0.005v-2.543c0-0.027 0.001-0.060 0.001-0.092 0-0.769-0.147-1.504-0.415-2.178l0.014 0.040z"></path>
<path fill="#2b2523" d="M64.393 20.722h1.003c0.003 0 0.007-0 0.011-0 0.253 0 0.501 0.026 0.739 0.076l-0.023-0.004v-2.439c-0.218-0.028-0.471-0.044-0.727-0.044h-1.004z"></path>
<path fill="#2b2523" d="M70.526 21.646c-0.278-0.687-0.671-1.273-1.159-1.763l0 0c-0.491-0.484-1.075-0.875-1.723-1.142l-0.036-0.013c-0.17-0.070-0.386-0.143-0.607-0.202l-0.041-0.009v2.567c0.271 0.137 0.503 0.307 0.704 0.508l0 0c0.272 0.275 0.489 0.605 0.633 0.972l0.007 0.020c0.144 0.37 0.228 0.799 0.228 1.248 0 0.017-0 0.033-0 0.050l0-0.003v2.543c0 0.015 0 0.033 0 0.051 0 0.446-0.084 0.872-0.236 1.264l0.008-0.024c-0.149 0.389-0.368 0.721-0.644 0.995l-0 0c-0.278 0.272-0.61 0.489-0.98 0.633l-0.020 0.007c-0.367 0.144-0.791 0.228-1.235 0.228-0.017 0-0.034-0-0.050-0l0.003 0h-3.246c-0.014 0-0.031 0-0.048 0-0.444 0-0.869-0.084-1.259-0.236l0.024 0.008c-0.389-0.151-0.722-0.368-1-0.64l0.001 0.001c-0.274-0.276-0.492-0.607-0.637-0.976l-0.007-0.020c-0.145-0.368-0.228-0.795-0.228-1.241 0-0.018 0-0.036 0-0.053l-0 0.003v-2.543c-0-0.014-0-0.031-0-0.047 0-0.448 0.084-0.877 0.236-1.272l-0.008 0.024c0.293-0.757 0.883-1.344 1.624-1.625l0.019-0.006c0.036-0.015 0.082-0.031 0.13-0.045l0.010-0.003v-2.491c-0.41 0.079-0.77 0.188-1.114 0.33l0.038-0.014c-1.338 0.543-2.38 1.582-2.914 2.883l-0.013 0.035c-0.254 0.63-0.401 1.36-0.401 2.125 0 0.037 0 0.075 0.001 0.112l-0-0.006v2.543c-0.001 0.033-0.001 0.072-0.001 0.111 0 0.764 0.147 1.494 0.415 2.163l-0.014-0.039c0.285 0.686 0.679 1.271 1.168 1.763l-0-0c0.489 0.487 1.074 0.878 1.724 1.143l0.035 0.013c0.632 0.253 1.365 0.4 2.131 0.4 0.031 0 0.061-0 0.092-0.001l-0.005 0h3.266c0.028 0 0.060 0.001 0.093 0.001 0.762 0 1.49-0.147 2.157-0.414l-0.039 0.014c1.338-0.54 2.379-1.58 2.906-2.884l0.012-0.035c0.254-0.629 0.401-1.359 0.401-2.123 0-0.039-0-0.079-0.001-0.118l0 0.006v-2.543c0.001-0.032 0.001-0.069 0.001-0.107 0-0.764-0.147-1.494-0.415-2.163l0.014 0.039z"></path>
<path fill="#2b2523" d="M61.823 20.734c0.1 0 0.204 0 0.308 0h1.435v-2.399h-1.427c-0.104 0-0.204 0-0.308 0z"></path>
<path fill="#2b2523" d="M35.217 0.153h2.97v9.907h-2.97v-9.907z"></path>
<path fill="#ca1518" d="M35.217 11.007h2.97v10.143h-2.97v-10.143z"></path>
<path fill="#ffe700" d="M35.217 21.861h2.97v9.907h-2.97v-9.907z"></path>
</svg>
