<!-- Generated by IcoMoon.io -->
<svg version="1.1" xmlns="http://www.w3.org/2000/svg" width="144" height="32" viewBox="0 0 144 32">
<title>brand_5</title>
<path fill="#f58113" d="M139.149 20.11l-139.149 5.379v0.708l139.007 5.803 0.142-11.89z"></path>
<path fill="#231f20" d="M9.969 7.755h9.88c0 1.223 0.021 2.419 0.021 3.643 0 3.824-0.713 6.295-4.496 6.295-0.757 0.028-1.535 0.028-2.292 0.028l-4.885-0.053c-4.215 0-6.917-0.494-7.112-6.401-0.022-0.728-0.043-1.456-0.043-2.185 0-6.036 0.39-8.873 5.923-8.977l3.285-0.078c0.412-0.027 0.8-0.027 1.212-0.027 0.972 0 1.967 0.053 2.939 0.078 3.524 0.13 5.426 1.015 5.426 5.75v0.313h-4.301c-0.044-0.702-0.109-1.431-0.735-1.691-0.584-0.26-1.233-0.26-1.86-0.26-1.686 0-3.393-0.026-5.079-0.026-2.248 0-2.379 1.562-2.379 3.982v1.614c0 2.081 0.238 3.434 2.184 3.746 0.519 0.078 1.059 0.078 1.6 0.078 1.296 0 2.614 0.026 3.912 0.026s2.378-0.339 2.378-2.107c0-0.156 0-0.339-0.021-0.495h-5.557v-3.252z"></path>
<path fill="#231f20" d="M22.385 0.182h16.084v3.955h-11.696v2.966h10.917v3.434h-10.917v3.071h11.696v3.929h-16.084v-17.355z"></path>
<path fill="#231f20" d="M60.435 17.538h-6.982l-8.69-13.036v13.036h-4.128v-17.355h6.982l8.69 13.010v-13.010h4.129v17.355z"></path>
<path fill="#231f20" d="M62.749 0.182h16.083v3.955h-11.694v2.966h10.916v3.434h-10.916v3.071h11.694v3.929h-16.083v-17.355z"></path>
<path fill="#231f20" d="M139.19 10.929c0 0.234 0.022 0.495 0.022 0.754 0 4.84-1.146 5.752-5.404 5.958-1.124 0.052-2.226 0.080-3.35 0.080l-2.724-0.053c-3.675-0.052-6.508-0.181-6.832-5.619-0.086-1.224-0.129-2.42-0.129-3.643 0-5.048 0.669-7.859 5.275-8.25 1.362-0.129 2.745-0.129 4.107-0.129 1.793 0 3.61 0 5.404 0.233 3.005 0.391 3.415 2.941 3.481 6.038h-4.26c0-1.691-0.756-1.925-2.031-2.004-0.412-0.027-0.821-0.027-1.232-0.027h-1.211l-2.227 0.027c-2.853 0.026-2.874 1.275-2.874 4.554 0 3.539 0.15 4.475 3.285 4.58l1.708 0.052c0.756 0 1.491-0.027 2.248-0.027 1.491 0 2.443-0.156 2.443-2.524h4.301z"></path>
<path fill="#231f20" d="M85.276 4.398h7.306c0.412 0 0.865 0.026 1.255 0.155 0.821 0.286 0.843 0.988 0.864 1.899 0 1.926-0.173 2.42-2.226 2.42h-7.199zM85.276 13.089h7.328c1.837 0 1.902 0.884 1.902 2.784v1.665h4.453v-3.33c0-2.394-1.102-3.045-2.94-3.331 0.909-0.364 1.945-0.598 2.507-1.639 0.541-1.040 0.606-2.368 0.606-3.565 0-4.189-1.427-5.49-4.821-5.49h-13.423v17.355h4.388v-4.449z"></path>
<path fill="#231f20" d="M106.202 14.39h9.317l1.361 3.148h4.842l-7.868-17.355h-5.922l-8.041 17.355h4.884zM107.737 10.799l3.091-6.87 3.091 6.87h-6.182z"></path>
<path fill="#231f20" d="M141.573 2.241h0.408c0.196 0 0.328-0.030 0.4-0.088s0.107-0.136 0.107-0.231c0-0.062-0.017-0.117-0.051-0.166s-0.082-0.085-0.143-0.109c-0.061-0.024-0.173-0.036-0.338-0.036h-0.382zM141.237 3.415v-2.085h0.716c0.245 0 0.422 0.019 0.532 0.057s0.197 0.106 0.262 0.202c0.065 0.096 0.097 0.198 0.097 0.306 0 0.152-0.054 0.285-0.163 0.398s-0.253 0.176-0.433 0.19c0.074 0.031 0.133 0.068 0.177 0.111 0.084 0.082 0.187 0.22 0.308 0.413l0.255 0.408h-0.411l-0.185-0.329c-0.145-0.259-0.262-0.42-0.351-0.485-0.062-0.048-0.152-0.072-0.27-0.072h-0.198v0.886zM142.086 0.726c-0.272 0-0.537 0.070-0.794 0.209-0.258 0.14-0.46 0.339-0.605 0.598s-0.218 0.529-0.218 0.811c0 0.279 0.071 0.547 0.214 0.803s0.343 0.456 0.6 0.599c0.257 0.143 0.525 0.215 0.804 0.215s0.547-0.072 0.804-0.215c0.257-0.143 0.456-0.342 0.598-0.599s0.214-0.523 0.214-0.803c0-0.281-0.073-0.551-0.217-0.811s-0.347-0.459-0.605-0.598c-0.259-0.14-0.523-0.209-0.794-0.209zM142.086 0.404c0.326 0 0.643 0.083 0.953 0.25s0.552 0.406 0.725 0.717c0.173 0.311 0.259 0.635 0.259 0.973 0 0.334-0.086 0.654-0.256 0.963s-0.409 0.547-0.717 0.718c-0.307 0.171-0.629 0.255-0.965 0.255s-0.657-0.085-0.964-0.255c-0.307-0.17-0.547-0.41-0.718-0.718s-0.257-0.629-0.257-0.963c0-0.338 0.087-0.662 0.261-0.973s0.415-0.55 0.725-0.717c0.31-0.167 0.628-0.25 0.953-0.25z"></path>
</svg>
