<svg version="1.1" xmlns="http://www.w3.org/2000/svg" xmlns:xlink="http://www.w3.org/1999/xlink"
fill="black" viewBox="0 0 22 25">
<path id="Consultant" d="M11.678,-0.000 C12.159,0.082 12.647,0.136 13.120,0.251 C15.105,0.736 16.751,1.736 17.897,3.459 C18.419,4.245 18.728,5.114 18.818,6.053 C18.833,6.209 18.881,6.288 19.036,6.348 C19.882,6.675 20.399,7.423 20.407,8.327 C20.416,9.287 20.432,10.248 20.403,11.207 C20.374,12.134 19.931,12.816 19.050,13.175 C18.896,13.239 18.720,13.262 18.551,13.275 C18.340,13.292 18.126,13.281 17.914,13.280 C17.129,13.275 16.858,13.103 16.505,12.363 C15.908,14.009 15.075,15.472 13.704,16.579 C13.986,17.260 14.364,17.870 14.937,18.345 C15.201,18.564 15.502,18.688 15.841,18.752 C17.507,19.067 19.135,19.497 20.642,20.305 C21.244,20.628 21.643,21.091 21.751,21.763 C21.849,22.372 21.912,22.986 21.970,23.600 C21.998,23.891 21.980,24.186 21.980,24.479 C21.980,24.863 21.850,24.995 21.470,24.996 C20.963,24.997 20.456,24.996 19.949,24.996 C13.489,24.996 7.029,24.995 0.569,25.000 C0.330,25.001 0.138,24.954 0.001,24.752 C0.001,24.248 0.001,23.743 0.001,23.239 C0.050,22.861 0.098,22.483 0.148,22.106 C0.264,21.240 0.664,20.577 1.498,20.217 C1.707,20.127 1.906,20.012 2.115,19.921 C3.370,19.376 4.681,19.007 6.027,18.778 C6.613,18.678 7.055,18.392 7.433,17.965 C7.799,17.553 8.070,17.085 8.277,16.570 C8.162,16.475 8.047,16.386 7.937,16.289 C7.686,16.067 7.471,15.750 7.178,15.640 C6.878,15.528 6.501,15.614 6.158,15.615 C5.046,15.616 4.341,15.076 4.069,14.005 C4.010,13.771 3.974,13.531 3.932,13.320 C3.601,13.279 3.268,13.294 2.977,13.192 C2.097,12.885 1.573,12.105 1.570,11.168 C1.566,10.257 1.571,9.347 1.570,8.436 C1.569,7.438 2.047,6.717 2.980,6.337 C3.107,6.285 3.142,6.221 3.154,6.092 C3.222,5.340 3.426,4.622 3.790,3.958 C4.898,1.937 6.665,0.795 8.862,0.251 C9.334,0.133 9.823,0.082 10.304,-0.000 C10.762,-0.000 11.220,-0.000 11.678,-0.000 zM21.217,24.205 C21.164,23.567 21.102,22.961 21.067,22.354 C21.023,21.586 20.620,21.117 19.929,20.804 C18.740,20.266 17.504,19.885 16.229,19.627 C15.587,19.497 14.946,19.392 14.424,18.941 C13.675,18.295 13.190,17.476 12.829,16.575 C12.749,16.374 12.857,16.230 13.016,16.093 C13.380,15.781 13.757,15.476 14.076,15.121 C14.987,14.109 15.521,12.884 15.951,11.616 C16.455,10.129 16.566,8.592 16.374,7.039 C16.255,6.072 15.917,5.178 15.325,4.393 C13.511,1.988 10.033,1.841 7.948,3.202 C6.364,4.236 5.674,5.768 5.545,7.591 C5.416,9.417 5.721,11.175 6.506,12.834 C6.804,13.463 7.183,14.055 7.532,14.660 C7.573,14.730 7.659,14.821 7.725,14.823 C8.285,14.836 8.846,14.830 9.400,14.830 C9.532,14.264 9.779,14.064 10.330,14.059 C10.526,14.057 10.723,14.058 10.919,14.060 C11.421,14.063 11.774,14.383 11.775,14.835 C11.776,15.291 11.430,15.619 10.929,15.621 C10.177,15.624 9.424,15.618 8.672,15.615 C8.589,15.615 8.507,15.615 8.424,15.615 C8.600,15.820 8.784,15.966 8.975,16.105 C9.157,16.237 9.222,16.399 9.135,16.613 C8.813,17.404 8.398,18.136 7.779,18.739 C7.373,19.135 6.901,19.402 6.336,19.517 C5.665,19.653 4.993,19.797 4.332,19.975 C3.393,20.228 2.482,20.557 1.631,21.040 C1.268,21.246 1.053,21.536 0.990,21.937 C0.929,22.330 0.866,22.725 0.838,23.121 C0.812,23.481 0.833,23.843 0.833,24.205 C7.607,24.205 14.383,24.205 21.217,24.205 zM18.040,6.211 C18.042,6.198 18.047,6.182 18.046,6.166 C18.043,6.125 18.038,6.085 18.033,6.045 C17.833,4.440 17.062,3.144 15.776,2.192 C13.353,0.397 10.689,0.142 7.909,1.207 C6.199,1.862 4.935,3.038 4.253,4.770 C4.068,5.239 3.963,5.726 3.930,6.255 C4.116,6.255 4.281,6.238 4.440,6.260 C4.596,6.281 4.747,6.341 4.904,6.386 C5.689,3.457 7.561,1.732 10.617,1.594 C14.007,1.442 16.166,3.132 17.072,6.341 C17.398,6.297 17.709,6.256 18.040,6.211 zM4.712,9.781 C4.712,9.781 4.712,9.781 4.713,9.781 C4.713,9.057 4.714,8.333 4.713,7.610 C4.712,7.179 4.559,7.031 4.119,7.031 C3.964,7.031 3.806,7.051 3.654,7.029 C3.041,6.941 2.385,7.516 2.366,8.251 C2.341,9.251 2.348,10.252 2.364,11.252 C2.373,11.827 2.737,12.330 3.263,12.462 C3.548,12.533 3.863,12.495 4.164,12.497 C4.553,12.501 4.709,12.346 4.711,11.953 C4.714,11.229 4.712,10.505 4.712,9.781 zM17.267,9.764 C17.267,9.764 17.267,9.764 17.268,9.764 C17.268,10.504 17.268,11.244 17.267,11.984 C17.267,12.207 17.339,12.442 17.561,12.461 C17.969,12.495 18.407,12.528 18.791,12.418 C19.337,12.261 19.602,11.788 19.616,11.235 C19.640,10.252 19.636,9.267 19.618,8.283 C19.605,7.580 19.002,6.935 18.312,7.026 C18.151,7.047 17.986,7.028 17.822,7.028 C17.423,7.029 17.267,7.186 17.267,7.593 C17.266,8.316 17.267,9.040 17.267,9.764 zM5.468,12.468 C5.322,12.642 5.164,12.897 4.942,13.071 C4.774,13.202 4.725,13.307 4.758,13.504 C4.939,14.568 5.437,14.990 6.598,14.798 C6.215,14.008 5.826,13.207 5.468,12.468 z" fill="#fff" />
</svg>
