<?xml version="1.0" standalone="no"?>
<!DOCTYPE svg PUBLIC "-//W3C//DTD SVG 20010904//EN"
 "http://www.w3.org/TR/2001/REC-SVG-20010904/DTD/svg10.dtd">
<svg version="1.0" xmlns="http://www.w3.org/2000/svg"
 width="256.000000pt" height="256.000000pt" viewBox="0 0 256.000000 256.000000"
 preserveAspectRatio="xMidYMid meet">

<g transform="translate(0.000000,256.000000) scale(0.100000,-0.100000)"
fill="#000000" stroke="none">
<path d="M1572 2258 c-13 -13 -18 -341 -6 -372 5 -13 22 -16 80 -16 l73 0 3
-112 3 -113 37 -3 37 -3 3 -77 c3 -68 5 -77 23 -80 15 -2 36 18 80 77 l60 80
196 1 c155 0 199 3 208 14 8 9 11 73 9 207 l-3 194 -47 3 -48 3 0 85 c0 136
34 124 -358 124 -250 0 -341 -3 -350 -12z m648 -118 l0 -80 -247 -2 -248 -3
-3 -67 -3 -68 -49 0 -50 0 0 150 0 150 300 0 300 0 0 -80z m108 -287 l-3 -158
-192 -3 -193 -2 -42 -57 -43 -57 -3 57 -3 57 -39 0 -40 0 0 160 0 160 280 0
281 0 -3 -157z"/>
<path d="M1854 1865 c-9 -22 4 -35 36 -35 30 0 45 21 27 39 -16 16 -57 14 -63
-4z"/>
<path d="M2014 1865 c-9 -23 9 -37 42 -33 21 2 29 8 29 23 0 26 -62 35 -71 10z"/>
<path d="M2174 1865 c-9 -23 9 -37 42 -33 21 2 29 8 29 23 0 26 -62 35 -71 10z"/>
<path d="M887 2146 c-133 -39 -237 -125 -276 -232 -24 -64 -41 -163 -41 -246
0 -55 -1 -58 -24 -58 -39 0 -76 -39 -83 -86 -16 -118 99 -292 178 -271 15 4
25 -9 54 -68 19 -40 57 -98 85 -128 43 -47 50 -61 50 -96 0 -35 -9 -52 -66
-123 -92 -116 -144 -141 -368 -178 -82 -13 -134 -38 -170 -80 -35 -43 -41 -68
-41 -185 0 -93 1 -100 20 -100 18 0 21 9 28 104 4 58 14 116 23 133 21 40 76
63 217 88 125 22 184 40 219 65 21 14 23 12 78 -93 31 -60 62 -108 71 -110 9
-2 49 25 88 58 l71 62 0 -144 c0 -145 6 -173 36 -161 11 4 14 36 14 149 0 79
4 144 8 144 5 0 21 -14 38 -31 16 -17 46 -44 67 -61 47 -38 51 -34 113 81 64
118 55 112 122 85 31 -12 111 -32 177 -44 216 -38 237 -57 245 -220 5 -97 7
-105 25 -105 19 0 20 8 23 105 2 95 0 110 -21 150 -34 64 -98 94 -257 121
-175 29 -210 46 -276 135 -97 131 -99 164 -14 247 33 33 73 87 92 123 28 54
37 64 59 64 66 0 137 90 158 201 16 78 -2 123 -57 147 l-39 16 -6 116 c-6 129
-30 221 -71 274 -28 37 -83 61 -121 54 -19 -4 -26 1 -36 24 -7 17 -30 42 -52
56 -37 24 -48 27 -166 29 -84 2 -142 -2 -174 -11z m310 -62 c15 -11 33 -35 39
-52 15 -48 24 -53 68 -41 33 9 43 8 65 -8 59 -43 91 -160 91 -338 0 -122 -8
-165 -30 -165 -14 0 -19 12 -24 58 -18 156 -57 260 -121 322 -34 33 -37 34
-68 21 -119 -50 -175 -64 -257 -64 -56 -1 -103 5 -137 17 -29 10 -57 15 -63
11 -25 -15 -53 -142 -58 -262 -4 -113 -6 -123 -23 -123 -12 0 -24 11 -29 26
-19 49 -29 197 -19 284 16 143 71 235 174 287 83 43 131 52 252 50 96 -2 116
-5 140 -23z m78 -293 c46 -69 67 -139 74 -249 4 -73 10 -105 21 -112 8 -5 18
-6 22 -4 20 12 3 -15 -58 -98 -37 -49 -76 -95 -87 -103 -30 -21 -70 -19 -85 5
-11 17 -23 20 -95 20 -51 0 -88 -5 -95 -12 -18 -18 -15 -88 5 -110 22 -24 153
-26 177 -2 9 8 16 20 16 25 0 5 15 9 34 9 46 0 91 34 153 114 29 37 53 65 53
60 0 -4 -18 -45 -40 -90 -47 -97 -118 -179 -192 -219 -47 -27 -63 -30 -138
-30 -71 0 -93 4 -133 25 -93 47 -157 139 -207 301 l-27 86 41 9 41 9 -3 95
c-4 89 8 193 28 245 9 23 9 23 72 8 86 -21 185 -12 289 25 46 16 90 30 96 31
7 1 24 -16 38 -38z m-686 -279 c5 -26 21 -82 34 -125 l25 -77 -22 0 c-29 0
-60 33 -85 90 -41 95 -36 160 14 160 20 0 25 -7 34 -48z m966 -38 c0 -69 -32
-143 -71 -169 -14 -9 -27 -15 -29 -13 -3 2 4 32 15 66 11 34 24 91 31 126 10
60 12 64 32 57 19 -7 22 -16 22 -67z m-435 -295 c0 -18 -5 -20 -52 -17 -41 2
-54 7 -56 21 -3 14 5 17 52 17 50 0 56 -2 56 -21z m-80 -243 c60 0 95 5 118
16 l32 16 0 -26 c0 -15 3 -36 6 -47 4 -15 -16 -42 -76 -107 -45 -49 -85 -88
-90 -88 -4 0 -42 38 -84 83 l-75 84 6 50 6 51 36 -15 c22 -10 68 -16 121 -17z
m-131 -187 c39 -42 71 -81 71 -87 0 -10 -113 -112 -124 -112 -7 0 -96 176 -96
190 0 15 62 91 71 88 4 -2 39 -37 78 -79z m382 -1 c7 -14 -2 -40 -42 -113
l-51 -95 -59 51 c-32 28 -62 56 -65 61 -4 6 31 48 77 94 l83 83 24 -32 c13
-18 28 -40 33 -49z"/>
<path d="M1577 833 c-4 -3 -7 -14 -7 -23 0 -13 27 -24 123 -48 79 -21 136 -42
162 -60 46 -32 84 -95 100 -167 9 -39 16 -50 31 -50 16 0 19 7 17 46 -2 88
-67 190 -145 230 -22 11 -90 33 -151 49 -125 33 -121 33 -130 23z"/>
<path d="M1964 397 c-3 -8 -4 -32 -2 -53 2 -32 7 -40 26 -42 22 -3 23 -1 20
50 -2 41 -7 54 -21 56 -9 2 -20 -3 -23 -11z"/>
</g>
</svg>
