<!-- Generated by IcoMoon.io -->
<svg version="1.1" xmlns="http://www.w3.org/2000/svg" width="32" height="32" viewBox="0 0 32 32">
<title>icon-consultant</title>
<path d="M19.65 3.775c-0.163 0.163-0.225 4.262-0.075 4.65 0.063 0.162 0.275 0.2 1 0.2h0.913l0.038 1.4 0.038 1.412 0.925 0.075 0.038 0.963c0.038 0.85 0.063 0.963 0.288 1 0.188 0.025 0.45-0.225 1-0.963l0.75-1 2.45-0.012c1.938 0 2.488-0.037 2.6-0.175 0.1-0.113 0.137-0.912 0.113-2.588l-0.038-2.425-1.188-0.075v-1.063c0-1.7 0.425-1.55-4.475-1.55-3.125 0-4.262 0.038-4.375 0.15zM27.75 5.25v1l-3.087 0.025-3.1 0.037-0.038 0.838-0.038 0.85h-1.238v-3.75h7.5v1zM29.1 8.838l-0.038 1.975-2.4 0.037-2.413 0.025-0.525 0.713-0.538 0.713-0.075-1.425h-0.988v-4h7.012l-0.038 1.963z"></path>
<path d="M23.175 8.688c-0.113 0.275 0.050 0.438 0.45 0.438 0.375 0 0.563-0.262 0.337-0.488-0.2-0.2-0.712-0.175-0.788 0.050z"></path>
<path d="M25.175 8.688c-0.113 0.287 0.113 0.463 0.525 0.412 0.262-0.025 0.363-0.1 0.363-0.287 0-0.325-0.775-0.438-0.887-0.125z"></path>
<path d="M27.175 8.688c-0.113 0.287 0.113 0.463 0.525 0.412 0.262-0.025 0.363-0.1 0.363-0.287 0-0.325-0.775-0.438-0.887-0.125z"></path>
<path d="M11.088 5.175c-1.662 0.487-2.963 1.563-3.45 2.9-0.3 0.8-0.513 2.037-0.513 3.075 0 0.688-0.013 0.725-0.3 0.725-0.487 0-0.95 0.488-1.038 1.075-0.2 1.475 1.237 3.65 2.225 3.388 0.188-0.050 0.313 0.113 0.675 0.85 0.238 0.5 0.713 1.225 1.063 1.6 0.537 0.587 0.625 0.762 0.625 1.2s-0.113 0.65-0.825 1.538c-1.15 1.45-1.8 1.762-4.6 2.225-1.025 0.163-1.675 0.475-2.125 1-0.438 0.538-0.513 0.85-0.513 2.313 0 1.163 0.013 1.25 0.25 1.25 0.225 0 0.263-0.113 0.35-1.3 0.050-0.725 0.175-1.45 0.288-1.663 0.263-0.5 0.95-0.788 2.713-1.1 1.563-0.275 2.3-0.5 2.738-0.813 0.262-0.175 0.287-0.15 0.975 1.163 0.387 0.75 0.775 1.35 0.887 1.375s0.613-0.313 1.1-0.725l0.887-0.775v1.8c0 1.813 0.075 2.163 0.45 2.012 0.137-0.050 0.175-0.45 0.175-1.863 0-0.988 0.050-1.8 0.1-1.8 0.063 0 0.262 0.175 0.475 0.387 0.2 0.212 0.575 0.55 0.838 0.762 0.588 0.475 0.637 0.425 1.412-1.012 0.8-1.475 0.688-1.4 1.525-1.063 0.387 0.15 1.387 0.4 2.212 0.55 2.7 0.475 2.962 0.712 3.063 2.75 0.063 1.212 0.087 1.313 0.313 1.313 0.238 0 0.25-0.1 0.288-1.313 0.025-1.188 0-1.375-0.262-1.875-0.425-0.8-1.225-1.175-3.212-1.512-2.188-0.363-2.625-0.575-3.45-1.688-1.213-1.637-1.238-2.050-0.175-3.087 0.413-0.413 0.913-1.087 1.15-1.538 0.35-0.675 0.462-0.8 0.738-0.8 0.825 0 1.712-1.125 1.975-2.512 0.2-0.975-0.025-1.537-0.712-1.838l-0.488-0.2-0.075-1.45c-0.075-1.613-0.375-2.763-0.887-3.425-0.35-0.463-1.038-0.763-1.512-0.675-0.238 0.050-0.325-0.013-0.45-0.3-0.088-0.213-0.375-0.525-0.65-0.7-0.463-0.3-0.6-0.338-2.075-0.362-1.050-0.025-1.775 0.025-2.175 0.138zM14.963 5.95c0.188 0.138 0.412 0.438 0.488 0.65 0.188 0.6 0.3 0.662 0.85 0.513 0.413-0.112 0.538-0.1 0.813 0.1 0.738 0.537 1.137 2 1.137 4.225 0 1.525-0.1 2.063-0.375 2.063-0.175 0-0.238-0.15-0.3-0.725-0.225-1.95-0.712-3.25-1.512-4.025-0.425-0.412-0.463-0.425-0.85-0.262-1.488 0.625-2.188 0.8-3.213 0.8-0.7 0.012-1.287-0.063-1.713-0.213-0.363-0.125-0.713-0.188-0.787-0.137-0.313 0.188-0.662 1.775-0.725 3.275-0.050 1.412-0.075 1.537-0.287 1.537-0.15 0-0.3-0.137-0.363-0.325-0.237-0.613-0.362-2.463-0.237-3.55 0.2-1.787 0.888-2.938 2.175-3.588 1.037-0.537 1.637-0.65 3.15-0.625 1.2 0.025 1.45 0.063 1.75 0.287zM15.938 9.613c0.575 0.863 0.837 1.738 0.925 3.113 0.050 0.912 0.125 1.313 0.262 1.4 0.1 0.063 0.225 0.075 0.275 0.050 0.25-0.15 0.038 0.188-0.725 1.225-0.462 0.613-0.95 1.188-1.088 1.288-0.375 0.262-0.875 0.238-1.063-0.063-0.137-0.212-0.287-0.25-1.188-0.25-0.637 0-1.1 0.063-1.188 0.15-0.225 0.225-0.188 1.1 0.063 1.375 0.275 0.3 1.912 0.325 2.213 0.025 0.113-0.1 0.2-0.25 0.2-0.313s0.188-0.113 0.425-0.113c0.575 0 1.137-0.425 1.913-1.425 0.363-0.463 0.663-0.813 0.663-0.75 0 0.050-0.225 0.563-0.5 1.125-0.587 1.212-1.475 2.238-2.4 2.738-0.588 0.337-0.787 0.375-1.725 0.375-0.887 0-1.162-0.050-1.662-0.313-1.162-0.587-1.963-1.738-2.588-3.762l-0.338-1.075 1.025-0.225-0.037-1.188c-0.050-1.113 0.1-2.412 0.35-3.063 0.113-0.287 0.113-0.287 0.9-0.1 1.075 0.262 2.313 0.15 3.612-0.313 0.575-0.2 1.125-0.375 1.2-0.387 0.088-0.012 0.3 0.2 0.475 0.475zM7.362 13.1c0.063 0.325 0.263 1.025 0.425 1.563l0.313 0.963h-0.275c-0.362 0-0.75-0.412-1.063-1.125-0.513-1.188-0.45-2 0.175-2 0.25 0 0.313 0.088 0.425 0.6zM19.438 13.575c0 0.863-0.4 1.787-0.887 2.113-0.175 0.113-0.337 0.188-0.363 0.162-0.038-0.025 0.050-0.4 0.188-0.825s0.3-1.137 0.387-1.575c0.125-0.75 0.15-0.8 0.4-0.713 0.238 0.088 0.275 0.2 0.275 0.838zM14 17.262c0 0.225-0.063 0.25-0.65 0.212-0.512-0.025-0.675-0.087-0.7-0.262-0.037-0.175 0.063-0.212 0.65-0.212 0.625 0 0.7 0.025 0.7 0.262zM13 20.3c0.75 0 1.188-0.063 1.475-0.2l0.4-0.2v0.325c0 0.188 0.037 0.45 0.075 0.587 0.050 0.188-0.2 0.525-0.95 1.337-0.563 0.613-1.063 1.1-1.125 1.1-0.050 0-0.525-0.475-1.050-1.038l-0.938-1.050 0.075-0.625 0.075-0.637 0.45 0.188c0.275 0.125 0.85 0.2 1.512 0.212zM11.363 22.637c0.488 0.525 0.887 1.012 0.887 1.087 0 0.125-1.412 1.4-1.55 1.4-0.088 0-1.2-2.2-1.2-2.375 0-0.188 0.775-1.137 0.887-1.1 0.050 0.025 0.488 0.462 0.975 0.988zM16.137 22.65c0.087 0.175-0.025 0.5-0.525 1.413l-0.637 1.188-0.738-0.637c-0.4-0.35-0.775-0.7-0.813-0.762-0.050-0.075 0.387-0.6 0.963-1.175l1.037-1.038 0.3 0.4c0.162 0.225 0.35 0.5 0.412 0.613z"></path>
<path d="M19.712 21.587c-0.050 0.038-0.087 0.175-0.087 0.288 0 0.163 0.337 0.3 1.538 0.6 0.988 0.262 1.7 0.525 2.025 0.75 0.575 0.4 1.050 1.188 1.25 2.087 0.113 0.488 0.2 0.625 0.387 0.625 0.2 0 0.238-0.087 0.212-0.575-0.025-1.1-0.837-2.375-1.813-2.875-0.275-0.137-1.125-0.413-1.887-0.613-1.563-0.413-1.512-0.413-1.625-0.288z"></path>
<path d="M24.55 27.038c-0.038 0.1-0.050 0.4-0.025 0.663 0.025 0.4 0.087 0.5 0.325 0.525 0.275 0.038 0.288 0.012 0.25-0.625-0.025-0.512-0.087-0.675-0.262-0.7-0.113-0.025-0.25 0.038-0.288 0.137z"></path>
</svg>
