<!-- Generated by IcoMoon.io -->
<svg version="1.1" xmlns="http://www.w3.org/2000/svg" width="32" height="32" viewBox="0 0 32 32">
<title>icon-generator</title>
<path d="M7 2.95c-0.5 0.175-0.787 0.388-0.95 0.7-0.25 0.5-0.213 1.138 0.088 1.537l0.275 0.338-3.75 3.75-0.425-0.262c-0.5-0.313-0.988-0.338-1.488-0.075-0.75 0.387-0.75 0.4-0.75 6.3 0 5.875 0.025 6.113 0.8 7.438 0.438 0.75 1.6 1.762 2.413 2.1 0.512 0.212 0.688 0.35 0.738 0.587 0.213 0.962 0.325 1.262 0.675 1.8 0.425 0.675 1.237 1.3 2.1 1.613 0.763 0.275 2.213 0.288 2.988 0.025 1.313-0.438 2.387-1.6 2.7-2.913l0.15-0.637h8.812v1.788c0 1.225 0.050 1.837 0.15 1.938 0.188 0.188 2.137 0.2 2.488 0.025 0.212-0.125 0.238-0.288 0.238-1.913v-1.788l1-0.125c2.525-0.35 4.45-2.2 4.762-4.625 0.050-0.475 0.1-2.25 0.113-3.962v-3.088h0.863c0.675 0 0.875-0.050 0.938-0.2 0.15-0.387 0.088-4.237-0.075-4.4-0.087-0.088-0.488-0.15-0.913-0.15h-0.775l-0.137-1.037c-0.35-2.438-2.038-4.275-4.338-4.7-0.95-0.175-6.625-0.188-6.95-0.013-0.275 0.15-0.313 0.525-0.075 0.725 0.1 0.087 1.438 0.15 3.712 0.175l3.563 0.038 0.725 0.362c0.875 0.45 1.625 1.237 2.063 2.175l0.337 0.713v13.75l-0.413 0.837c-0.45 0.925-1.188 1.65-2.125 2.125l-0.587 0.288-6.712 0.038c-6.387 0.038-6.725 0.025-6.725-0.188 0-0.125-0.037-0.35-0.075-0.5l-0.075-0.275 13.338-0.075 0.663-0.363c1.175-0.663 1.663-1.538 1.75-3.188 0.050-1.038 0.038-1.2-0.163-1.35-0.3-0.212-0.375-0.2-0.613 0.038-0.15 0.137-0.2 0.45-0.2 1.188 0 1.563-0.6 2.438-1.875 2.725-0.35 0.087-3.012 0.137-6.95 0.137h-6.387l-0.8-1h2.012c2.2 0 2.7-0.113 3.063-0.675l0.212-0.325h3.313c2.762 0 3.387-0.038 3.725-0.2 0.637-0.3 0.813-0.8 0.813-2.35v-1.325h0.375c0.438 0 1-0.25 1.262-0.575 0.113-0.125 0.2-0.625 0.238-1.287l0.063-1.075 0.475-0.037 0.462-0.037v1.512c0 1.575 0.1 2 0.488 2 0.512 0 0.525-0.163 0.488-5.025-0.038-4.3-0.050-4.7-0.275-5.1-0.438-0.8-0.813-1.2-1.475-1.575l-0.663-0.362-18.7-0.063-0.138-0.313c-0.313-0.675-0.3-0.688 5.25-0.712 4.662-0.038 5.075-0.050 5.2-0.263 0.1-0.15 0.1-0.275 0-0.438-0.125-0.2-0.525-0.212-5.125-0.237-2.738-0.013-5.075 0.013-5.175 0.038zM25.25 5.888c0.712 0.162 1.313 0.612 1.625 1.237 0.225 0.438 0.25 0.737 0.25 3v2.5h-24.25v-1.088c0-1.050 0.013-1.1 0.4-1.5l0.4-0.412h1.962c1.875 0 1.975-0.012 2.050-0.25 0.162-0.525-0.112-0.625-1.663-0.625h-1.45l0.975-1h1.475c1.325 0 1.475-0.025 1.6-0.237 0.162-0.313 0.162-0.338-0.075-0.563-0.137-0.15-0.438-0.2-1.088-0.2h-0.888l0.975-1h8.575c5.425 0 8.762 0.050 9.125 0.138zM1.875 10.012c0.075 0.125 0.125 2.313 0.125 5.45 0 4.813 0.025 5.262 0.237 5.738 0.3 0.663 0.888 1.313 1.45 1.625 0.425 0.225 0.45 0.262 0.375 0.675-0.050 0.238-0.112 0.462-0.138 0.488s-0.275-0.050-0.563-0.175c-0.7-0.325-1.525-1.137-1.95-1.95l-0.35-0.675-0.038-5.625c-0.037-5.088-0.012-5.637 0.175-5.775 0.238-0.175 0.512-0.088 0.675 0.225zM31 11.125v1.5h-0.875v-3h0.875v1.5zM3.9 17.012l0.038 3.512 0.362 0.3c0.188 0.175 0.513 0.35 0.713 0.387 0.438 0.087 0.438 0.125 0 0.637-0.35 0.413-0.375 0.413-0.713 0.238-0.5-0.262-1-0.813-1.225-1.363-0.163-0.387-0.2-1.063-0.2-3.762 0-1.813 0.038-3.338 0.087-3.375 0.038-0.050 0.263-0.088 0.487-0.088h0.413l0.038 3.513zM25.225 14.387c0.025 0.588-0.012 0.863-0.137 0.963-0.125 0.113-2.125 0.162-7.15 0.175-6.488 0.037-6.988 0.050-7.113 0.25-0.1 0.162-0.1 0.287 0 0.437 0.125 0.2 0.4 0.225 2.412 0.262l2.263 0.025v1.875c0 1.837 0 1.875-0.275 1.938-0.162 0.038-2.537 0.050-5.287 0.038l-5-0.038-0.037-1.9-0.037-1.913 2.275-0.025c2.013-0.038 2.287-0.063 2.412-0.25 0.1-0.163 0.1-0.287 0-0.45-0.125-0.188-0.4-0.213-2.412-0.25l-2.263-0.025v-2l20.313 0.063 0.038 0.825zM21.375 17.938v1.438h-4.875v-2.875h4.875v1.438zM23.225 17.9l-0.038 1.413-0.462 0.038-0.475 0.038v-2.887h1.012l-0.038 1.4zM9.625 21.637c2.15 0.962 2.675 3.825 1.012 5.488-1.6 1.6-4.362 1.2-5.425-0.8-0.362-0.688-0.388-2.413-0.037-3.075 0.438-0.85 1.212-1.5 2.075-1.762 0.625-0.188 1.787-0.113 2.375 0.15zM23.25 26.688v1.438h-1v-2.875h1v1.438z"></path>
<path d="M11.825 6.95c-0.238 0.225-0.238 0.25-0.075 0.563 0.113 0.213 0.275 0.237 1.287 0.237 1.2 0 1.463-0.1 1.463-0.525 0-0.35-0.4-0.475-1.488-0.475-0.738 0-1.050 0.050-1.188 0.2z"></path>
<path d="M16.725 6.888c-0.262 0.15-0.288 0.5-0.075 0.713 0.1 0.1 0.575 0.15 1.288 0.15s1.188-0.050 1.288-0.15c0.225-0.225 0.175-0.575-0.087-0.725-0.313-0.162-2.137-0.162-2.413 0.013z"></path>
<path d="M22.325 6.938c-0.262 0.088-0.488 0.188-0.5 0.213-0.413 0.537-0.45 0.713-0.45 2.013 0 1.512 0.15 1.963 0.75 2.275 0.462 0.238 0.8 0.238 1.313-0.012 0.675-0.313 0.837-0.838 0.788-2.438-0.038-1.263-0.063-1.375-0.35-1.675-0.45-0.438-0.975-0.575-1.55-0.375zM23.1 7.85c0.113 0.075 0.15 0.45 0.125 1.412-0.038 1.275-0.050 1.3-0.337 1.338-0.188 0.037-0.375-0.037-0.475-0.175-0.2-0.275-0.225-2.075-0.038-2.438 0.137-0.25 0.45-0.313 0.725-0.138z"></path>
<path d="M12.363 8.925c-0.188 0.113-0.425 0.4-0.55 0.65-0.762 1.625 1.688 2.875 2.512 1.275 0.275-0.525 0.162-1.287-0.238-1.7-0.387-0.375-1.25-0.488-1.725-0.225zM13.588 10.075c0.1 0.275-0.213 0.563-0.575 0.525-0.4-0.050-0.525-0.563-0.2-0.813 0.25-0.175 0.65-0.025 0.775 0.287z"></path>
<path d="M17.175 8.988c-0.75 0.463-0.863 1.537-0.225 2.188 0.65 0.637 1.725 0.525 2.188-0.225 0.8-1.3-0.663-2.763-1.962-1.963zM18.375 10c0.163 0.313-0.125 0.662-0.512 0.6-0.375-0.050-0.488-0.575-0.175-0.8 0.25-0.188 0.525-0.1 0.688 0.2z"></path>
<path d="M17.65 17.275c-0.212 0.212-0.188 1.163 0.038 1.35 0.1 0.075 0.288 0.113 0.438 0.063 0.462-0.15 0.3-1.563-0.188-1.563-0.075 0-0.2 0.063-0.288 0.15z"></path>
<path d="M19.5 17.363c-0.275 0.538-0.063 1.387 0.35 1.387 0.363 0 0.525-0.262 0.525-0.813 0-0.288-0.063-0.575-0.15-0.663-0.225-0.225-0.575-0.175-0.725 0.087z"></path>
<path d="M7.188 22.587c-0.862 0.45-1.313 1.188-1.313 2.125 0.013 1.813 1.813 2.95 3.438 2.163 1.713-0.837 1.75-3.387 0.050-4.25-0.588-0.3-1.638-0.325-2.175-0.038zM9.2 23.637c0.162 0.163 0.363 0.5 0.438 0.75 0.2 0.65-0.137 1.337-0.813 1.663-0.45 0.212-0.537 0.225-1 0.063-0.688-0.238-1.125-0.875-1.037-1.525 0.075-0.5 0.463-1.025 0.9-1.225 0.4-0.175 1.188-0.038 1.512 0.275z"></path>
</svg>
