<!-- Generated by IcoMoon.io -->
<svg version="1.1" xmlns="http://www.w3.org/2000/svg" width="32" height="32" viewBox="0 0 32 32">
<title>icon-truck</title>
<path d="M2.144 3.104c-0.416 0.512-0.448 0.672-0.064 1.376 0.32 0.544 0.448 1.952 0.48 4.512 0 3.008 0.096 3.776 0.48 3.936 0.928 0.352 0.48 0.8-0.64 0.608-0.96-0.16-1.12-0.096-1.12 0.448 0 0.32 0.16 0.768 0.384 0.992 0.512 0.512 2.56 0.512 3.072 0 0.608-0.608 0.448-2.208-0.256-3.008-0.576-0.576-0.672-1.024-0.576-2.848l0.096-2.176 3.456 4.16c3.104 3.808 3.424 4.32 3.424 5.504v1.312h-10.88v2.816c0 1.76 0.128 2.944 0.384 3.2 0.224 0.224 1.216 0.384 2.24 0.384 1.472 0 1.856 0.096 1.856 0.512 0 0.288 0.48 0.992 1.088 1.6 0.96 0.96 1.28 1.088 2.752 1.088s1.792-0.128 2.752-1.088c0.608-0.608 1.088-1.312 1.088-1.6 0-0.448 0.576-0.512 4.48-0.512s4.48 0.064 4.48 0.512c0 0.288 0.48 0.992 1.088 1.6 0.96 0.96 1.28 1.088 2.752 1.088s1.792-0.128 2.752-1.088c0.608-0.608 1.088-1.312 1.088-1.6 0-0.384 0.32-0.512 1.216-0.512 0.672 0 1.376-0.16 1.6-0.384 0.256-0.256 0.384-1.792 0.384-4.768v-4.384l-1.344-1.984c-0.736-1.12-1.856-2.56-2.496-3.264l-1.184-1.216h-3.808c-2.56 0-3.968 0.128-4.224 0.384s-0.384 1.792-0.384 4.8c0 4.192-0.032 4.416-0.64 4.416-0.576 0-0.64-0.224-0.64-1.888v-1.856l-6.752-5.824c-3.712-3.168-7.008-5.792-7.296-5.792-0.32 0-0.8 0.256-1.088 0.544zM15.968 16.544l0.032 1.376h-3.84v-1.888c0-1.856 0-1.888-2.528-4.928-1.408-1.696-2.656-3.264-2.784-3.456-0.128-0.224 1.856 1.376 4.448 3.584 4.608 3.936 4.672 3.968 4.672 5.312zM26.272 10.24l0.768 0.608-1.92 0.032c-1.088 0-2.112 0.16-2.336 0.384-0.512 0.512-0.512 5.12 0 5.632 0.256 0.256 1.664 0.384 4.16 0.384h3.776v2.496c0 1.504-0.16 2.656-0.384 2.88-0.544 0.544-1.536 0.48-1.536-0.128 0-0.288-0.48-0.992-1.088-1.6-0.96-0.96-1.28-1.088-2.752-1.088s-1.792 0.128-2.752 1.088c-0.608 0.608-1.088 1.312-1.088 1.6s-0.256 0.512-0.64 0.512c-0.608 0-0.64-0.224-0.64-6.336 0-4.512 0.096-6.432 0.384-6.72 0.224-0.224 1.344-0.384 2.848-0.384 1.984 0 2.592 0.128 3.2 0.64zM29.344 13.888c0.576 0.832 1.056 1.664 1.056 1.824 0 0.448-5.888 0.352-6.336-0.096-0.512-0.512-0.48-2.592 0-3.072 0.256-0.256 1.12-0.384 2.304-0.32 1.856 0.096 1.92 0.128 2.976 1.664zM18.56 21.12v1.92h-3.2c-2.72 0-3.2-0.064-3.2-0.512 0-0.288-0.48-0.992-1.088-1.6-0.96-0.96-1.28-1.088-2.752-1.088s-1.792 0.128-2.752 1.088c-0.608 0.608-1.088 1.312-1.088 1.6 0 0.384-0.32 0.512-1.216 0.512-1.6 0-1.984-0.448-1.984-2.304v-1.536h17.28v1.92zM9.92 22.080c1.376 1.376 0.352 3.84-1.6 3.84-1.216 0-2.24-1.024-2.24-2.24 0-0.544 0.288-1.248 0.64-1.6s1.056-0.64 1.6-0.64c0.544 0 1.248 0.288 1.6 0.64zM26.56 22.080c1.376 1.376 0.352 3.84-1.6 3.84-1.216 0-2.24-1.024-2.24-2.24s1.024-2.24 2.24-2.24c0.544 0 1.248 0.288 1.6 0.64z"></path>
</svg>
