<!-- Generated by IcoMoon.io -->
<svg version="1.1" xmlns="http://www.w3.org/2000/svg" width="32" height="32" viewBox="0 0 32 32">
<title>tools-icon</title>
<path d="M13.218 17.664c-1.353 0-2.453 1.1-2.453 2.453s1.1 2.453 2.453 2.453 2.453-1.1 2.453-2.453c-0-1.353-1.1-2.453-2.453-2.453zM13.218 21.375c-0.694 0-1.258-0.564-1.258-1.257 0-0.694 0.564-1.258 1.258-1.258s1.258 0.564 1.258 1.258c0 0.693-0.564 1.257-1.258 1.257z"></path>
<path d="M17.492 15.195l-1.652 0.955c-0.16-0.106-0.326-0.202-0.499-0.288v-1.909h-4.248v1.91c-0.156 0.078-0.307 0.164-0.453 0.258l-1.643-0.974-2.165 3.655 1.642 0.973c-0.010 0.119-0.015 0.233-0.015 0.344 0 0.094 0.004 0.19 0.011 0.289l-1.652 0.954 2.124 3.679 1.654-0.955c0.159 0.106 0.326 0.201 0.498 0.287v1.909h4.248v-1.909c0.155-0.078 0.306-0.164 0.453-0.258l1.642 0.973 2.165-3.655-1.641-0.973c0.009-0.117 0.014-0.23 0.014-0.342 0-0.095-0.004-0.19-0.010-0.289l1.652-0.954-2.126-3.679zM16.677 19.192l0.060 0.403c0.030 0.199 0.043 0.366 0.043 0.523 0 0.169-0.016 0.348-0.050 0.564l-0.063 0.401 1.297 0.769-0.947 1.598-1.297-0.77-0.322 0.251c-0.267 0.207-0.561 0.376-0.873 0.499l-0.378 0.149v1.508h-1.857v-1.508l-0.378-0.15c-0.328-0.129-0.633-0.306-0.907-0.523l-0.319-0.254-1.306 0.755-0.929-1.608 1.307-0.755-0.060-0.402c-0.029-0.195-0.043-0.366-0.043-0.523 0-0.172 0.016-0.352 0.050-0.565l0.063-0.401-1.297-0.769 0.946-1.598 1.299 0.77 0.321-0.251c0.267-0.207 0.561-0.376 0.874-0.5l0.378-0.149v-1.508h1.857v1.508l0.378 0.149c0.328 0.129 0.633 0.306 0.907 0.523l0.319 0.254 1.306-0.754 0.929 1.608-1.307 0.756z"></path>
<path d="M20.305 9.397c-1.107 0-2.007 0.9-2.007 2.007s0.9 2.008 2.007 2.008c1.106 0 2.008-0.901 2.008-2.008s-0.901-2.007-2.008-2.007zM20.305 12.217c-0.447 0-0.812-0.364-0.812-0.813 0-0.447 0.365-0.811 0.812-0.811s0.812 0.364 0.812 0.811c0 0.449-0.364 0.813-0.812 0.813z"></path>
<path d="M23.606 7.469l-1.305 0.753c-0.078-0.049-0.157-0.095-0.238-0.137v-1.507h-3.515v1.506c-0.069 0.037-0.137 0.076-0.203 0.115l-1.296-0.767-1.791 3.023 1.294 0.767c-0.004 0.062-0.005 0.122-0.005 0.182 0 0.046 0.001 0.093 0.003 0.139l-1.303 0.752 1.758 3.045 1.305-0.754c0.078 0.049 0.156 0.095 0.238 0.137v1.507h3.515v-1.506c0.069-0.037 0.136-0.075 0.202-0.115l1.296 0.768 1.792-3.024-1.294-0.767c0.004-0.061 0.006-0.122 0.006-0.182 0-0.046-0.001-0.093-0.003-0.14l1.302-0.751-1.758-3.043zM22.836 11.028c0.019 0.124 0.032 0.248 0.032 0.376 0 0.124-0.012 0.256-0.036 0.403l-0.066 0.403 0.948 0.563-0.573 0.966-0.949-0.562-0.321 0.252c-0.187 0.147-0.398 0.268-0.626 0.358l-0.378 0.15v1.098h-1.124v-1.098l-0.377-0.15c-0.236-0.094-0.456-0.22-0.654-0.377l-0.318-0.253-0.952 0.55-0.562-0.973 0.956-0.551-0.063-0.404c-0.019-0.122-0.032-0.246-0.032-0.374 0-0.138 0.015-0.273 0.037-0.406l0.065-0.401-0.947-0.561 0.573-0.966 0.948 0.562 0.321-0.252c0.19-0.148 0.401-0.269 0.627-0.359l0.378-0.149v-1.099h1.124v1.098l0.377 0.149c0.237 0.095 0.457 0.222 0.653 0.378l0.318 0.253 0.953-0.55 0.563 0.973-0.954 0.55 0.060 0.403z"></path>
</svg>
