<svg enable-background="new 0 0 91 91" height="91px" id="Layer_1" version="1.1" viewBox="0 0 91 91" width="91px" xml:space="preserve" xmlns="http://www.w3.org/2000/svg" xmlns:xlink="http://www.w3.org/1999/xlink"><g><path d="M37.588,50.233c-3.848,0-6.977,3.129-6.977,6.977c0,3.846,3.129,6.975,6.977,6.975s6.977-3.129,6.977-6.975   C44.564,53.362,41.436,50.233,37.588,50.233z M37.588,60.784c-1.973,0-3.576-1.604-3.576-3.574c0-1.973,1.604-3.578,3.576-3.578   s3.578,1.605,3.578,3.578C41.166,59.181,39.561,60.784,37.588,60.784z"/><path d="M49.744,43.212l-4.697,2.715c-0.455-0.301-0.928-0.574-1.418-0.818v-5.43h-12.08v5.432   c-0.443,0.221-0.873,0.465-1.289,0.734l-4.672-2.77L19.43,53.468l4.67,2.766c-0.029,0.338-0.043,0.662-0.043,0.977   c0,0.266,0.01,0.539,0.031,0.822l-4.699,2.713l6.041,10.463l4.703-2.717c0.453,0.301,0.928,0.572,1.416,0.816v5.43h12.08v-5.43   c0.441-0.221,0.871-0.467,1.289-0.734l4.67,2.768l6.158-10.393l-4.666-2.766c0.027-0.334,0.041-0.654,0.041-0.973   c0-0.27-0.01-0.541-0.029-0.822l4.697-2.713L49.744,43.212z M47.426,54.577l0.172,1.145c0.084,0.566,0.123,1.041,0.123,1.488   c0,0.48-0.045,0.99-0.143,1.605l-0.18,1.139l3.689,2.186l-2.693,4.543l-3.689-2.189l-0.916,0.713   c-0.758,0.59-1.594,1.068-2.484,1.42l-1.076,0.424v4.289h-5.281v-4.287l-1.074-0.426c-0.932-0.367-1.801-0.869-2.578-1.488   l-0.906-0.723l-3.713,2.146l-2.643-4.572l3.717-2.148l-0.17-1.143c-0.082-0.555-0.123-1.041-0.123-1.488   c0-0.49,0.045-1,0.141-1.607l0.18-1.141l-3.688-2.186l2.689-4.543l3.693,2.191l0.914-0.713c0.758-0.59,1.594-1.068,2.486-1.422   l1.074-0.424v-4.287h5.281v4.289l1.076,0.424c0.934,0.367,1.799,0.869,2.578,1.488l0.906,0.721l3.715-2.145l2.641,4.572   L47.426,54.577z"/><path d="M57.742,26.724c-3.148,0-5.707,2.559-5.707,5.707c0,3.15,2.559,5.711,5.707,5.711c3.146,0,5.709-2.561,5.709-5.711   C63.451,29.282,60.889,26.724,57.742,26.724z M57.742,34.741c-1.271,0-2.309-1.035-2.309-2.311c0-1.271,1.037-2.307,2.309-2.307   c1.273,0,2.309,1.035,2.309,2.307C60.051,33.706,59.016,34.741,57.742,34.741z"/><path d="M67.129,21.241l-3.711,2.141c-0.221-0.139-0.447-0.27-0.678-0.391v-4.285h-9.996v4.283   c-0.197,0.105-0.389,0.215-0.576,0.328l-3.686-2.182l-5.094,8.598l3.68,2.18c-0.01,0.176-0.014,0.348-0.014,0.518   c0,0.131,0.002,0.264,0.008,0.396l-3.705,2.139l4.998,8.658l3.711-2.145c0.221,0.139,0.445,0.27,0.678,0.391v4.285h9.996v-4.283   c0.195-0.104,0.387-0.213,0.574-0.328L67,43.728l5.096-8.6l-3.68-2.18c0.01-0.174,0.016-0.346,0.016-0.518   c0-0.131-0.004-0.264-0.008-0.398l3.703-2.137L67.129,21.241z M64.939,31.36c0.055,0.352,0.092,0.705,0.092,1.07   c0,0.354-0.033,0.729-0.102,1.145l-0.189,1.146l2.697,1.6l-1.629,2.748l-2.699-1.598l-0.914,0.717   c-0.533,0.418-1.133,0.762-1.781,1.018l-1.074,0.426v3.123h-3.197v-3.123l-1.072-0.426c-0.67-0.266-1.297-0.627-1.859-1.072   l-0.904-0.719L49.6,38.978l-1.598-2.766l2.719-1.568l-0.178-1.15c-0.053-0.348-0.09-0.699-0.09-1.063   c0-0.393,0.043-0.775,0.104-1.154l0.184-1.141l-2.693-1.594l1.629-2.748l2.695,1.598l0.914-0.717   c0.541-0.422,1.141-0.766,1.783-1.02l1.074-0.424v-3.125h3.197v3.123l1.072,0.424c0.674,0.27,1.299,0.631,1.857,1.074l0.904,0.719   l2.709-1.563l1.6,2.768l-2.713,1.564L64.939,31.36z"/></g></svg>