<?xml version="1.0" standalone="no"?>
<!DOCTYPE svg PUBLIC "-//W3C//DTD SVG 20010904//EN"
 "http://www.w3.org/TR/2001/REC-SVG-20010904/DTD/svg10.dtd">
<svg version="1.0" xmlns="http://www.w3.org/2000/svg"
 width="96.000000pt" height="96.000000pt" viewBox="0 0 96.000000 96.000000"
 preserveAspectRatio="xMidYMid meet">

<g transform="translate(0.000000,96.000000) scale(0.100000,-0.100000)"
fill="#000000" stroke="none">
<path d="M92 668 c-18 -18 -15 -43 8 -63 18 -16 20 -31 20 -126 0 -115 -10
-139 -40 -99 -18 23 -40 20 -40 -6 0 -21 37 -54 60 -54 11 0 29 9 40 20 17 17
20 34 20 108 l1 87 79 -85 c74 -79 80 -88 80 -127 l0 -43 -148 0 c-102 0 -152
-4 -160 -12 -16 -16 -16 -120 0 -136 7 -7 33 -12 59 -12 44 0 48 -2 54 -29 3
-15 20 -41 36 -57 25 -24 39 -29 79 -29 40 0 54 5 79 29 16 16 33 42 36 57 l7
29 138 0 138 0 7 -29 c3 -15 20 -41 36 -57 25 -24 39 -29 79 -29 40 0 54 5 79
29 16 16 33 41 36 57 5 24 12 28 43 31 l37 3 3 116 3 116 -81 122 -80 122
-118 -3 -117 -3 -3 -157 c-2 -148 -4 -158 -22 -158 -16 0 -19 8 -22 62 l-3 61
-200 138 c-110 77 -202 139 -205 139 -4 0 -11 -5 -18 -12z m746 -228 l52 -80
-105 0 -105 0 0 80 0 80 53 0 52 0 53 -80z m-556 -277 c22 -20 23 -61 1 -85
-34 -38 -103 -11 -103 40 0 54 62 81 102 45z m520 0 c38 -34 11 -103 -40 -103
-54 0 -81 62 -45 102 20 22 61 23 85 1z"/>
</g>
</svg>
